<svg version="1.1" viewBox="0.0 0.0 820.3175853018373 186.69291338582678" fill="none" stroke="none" stroke-linecap="square" stroke-miterlimit="10" xmlns:xlink="http://www.w3.org/1999/xlink" xmlns="http://www.w3.org/2000/svg"><clipPath id="p.0"><path d="m0 0l820.31757 0l0 186.69292l-820.31757 0l0 -186.69292z" clip-rule="nonzero"/></clipPath><g clip-path="url(#p.0)"><path fill="#000000" fill-opacity="0.0" d="m0 0l820.31757 0l0 186.69292l-820.31757 0z" fill-rule="evenodd"/><path fill="#cfe2f3" d="m10.489501 12.464567l799.33856 0l0 161.76378l-799.33856 0z" fill-rule="evenodd"/><path stroke="#000000" stroke-width="1.0" stroke-linejoin="round" stroke-linecap="butt" d="m10.489501 12.464567l799.33856 0l0 161.76378l-799.33856 0z" fill-rule="evenodd"/><path fill="#000000" d="m20.286377 32.984566l0 -6.218748l0.9375 0l0 0.875q0.6875 -1.015625 1.984375 -1.015625q0.5625 0 1.03125 0.203125q0.484375 0.203125 0.71875 0.53125q0.234375 0.328125 0.328125 0.765625q0.046875 0.296875 0.046875 1.03125l0 3.828123l-1.046875 0l0 -3.781248q0 -0.65625 -0.125 -0.96875q-0.125 -0.3125 -0.4375 -0.5q-0.3125 -0.203125 -0.734375 -0.203125q-0.671875 0 -1.171875 0.4375q-0.484375 0.421875 -0.484375 1.609375l0 3.406248l-1.046875 0zm6.283203 -3.109373q0 -1.734375 0.953125 -2.5625q0.796875 -0.6875 1.953125 -0.6875q1.28125 0 2.09375 0.84375q0.828125 0.828125 0.828125 2.3125q0 1.203125 -0.359375 1.890625q-0.359375 0.6874981 -1.0625 1.0781231q-0.6875 0.375 -1.5 0.375q-1.296875 0 -2.109375 -0.828125q-0.796875 -0.8437481 -0.796875 -2.421873zm1.078125 0q0 1.1875 0.515625 1.78125q0.53125 0.5937481 1.3125 0.5937481q0.796875 0 1.3125 -0.5937481q0.515625 -0.59375 0.515625 -1.8125q0 -1.15625 -0.53125 -1.75q-0.515625 -0.59375 -1.296875 -0.59375q-0.78125 0 -1.3125 0.59375q-0.515625 0.578125 -0.515625 1.78125zm10.017578 3.109373l0 -0.78125q-0.59375 0.921875 -1.734375 0.921875q-0.75 0 -1.375 -0.40625q-0.625 -0.421875 -0.96875 -1.1562481q-0.34375 -0.734375 -0.34375 -1.6875q0 -0.921875 0.3125 -1.6875q0.3125 -0.765625 0.9375 -1.15625q0.625 -0.40625 1.390625 -0.40625q0.5625 0 1.0 0.234375q0.4375 0.234375 0.71875 0.609375l0 -3.078125l1.046875 0l0 8.593748l-0.984375 0zm-3.328125 -3.109373q0 1.203125 0.5 1.796875q0.5 0.5781231 1.1875 0.5781231q0.6875 0 1.171875 -0.5624981q0.484375 -0.5625 0.484375 -1.71875q0 -1.28125 -0.5 -1.875q-0.484375 -0.59375 -1.203125 -0.59375q-0.703125 0 -1.171875 0.578125q-0.46875 0.5625 -0.46875 1.796875zm10.220703 1.109375l1.09375 0.125q-0.25 0.9531231 -0.953125 1.4843731q-0.703125 0.53125 -1.78125 0.53125q-1.359375 0 -2.171875 -0.84375q-0.796875 -0.8437481 -0.796875 -2.359373q0 -1.5625 0.8125 -2.421875q0.8125 -0.875 2.09375 -0.875q1.25 0 2.03125 0.84375q0.796875 0.84375 0.796875 2.390625q0 0.09375 0 0.28125l-4.640625 0q0.0625 1.03125 0.578125 1.578125q0.515625 0.5312481 1.296875 0.5312481q0.578125 0 0.984375 -0.2968731q0.421875 -0.3125 0.65625 -0.96875zm-3.453125 -1.703125l3.46875 0q-0.0625 -0.796875 -0.390625 -1.1875q-0.515625 -0.609375 -1.3125 -0.609375q-0.734375 0 -1.234375 0.484375q-0.484375 0.484375 -0.53125 1.3125zm5.064453 3.703123l3.296875 -8.593748l1.21875 0l3.515625 8.593748l-1.28125 0l-1.015625 -2.609373l-3.578125 0l-0.953125 2.609373l-1.203125 0zm2.484375 -3.531248l2.90625 0l-0.890625 -2.375q-0.421875 -1.078125 -0.609375 -1.78125q-0.171875 0.828125 -0.46875 1.640625l-0.9375 2.515625z" fill-rule="nonzero"/><path fill="#cfe2f3" d="m19.414698 40.771652l100.28347 0l0 100.28346l-100.28347 0z" fill-rule="evenodd"/><path stroke="#000000" stroke-width="1.0" stroke-linejoin="round" stroke-linecap="butt" d="m19.414698 40.771652l100.28347 0l0 100.28346l-100.28347 0z" fill-rule="evenodd"/><path fill="#000000" d="m59.312717 91.36964l0 -9.5625l1.078125 0l0 0.890625q0.375 -0.53125 0.84375 -0.78125q0.484375 -0.265625 1.15625 -0.265625q0.875 0 1.546875 0.453125q0.6874962 0.453125 1.0312462 1.28125q0.34375 0.828125 0.34375 1.828125q0 1.046875 -0.375 1.90625q-0.375 0.84375 -1.1093712 1.296875q-0.71875 0.453125 -1.53125 0.453125q-0.578125 0 -1.046875 -0.25q-0.46875 -0.25 -0.765625 -0.625l0 3.375l-1.171875 0zm1.0625 -6.078125q0 1.34375 0.53125 1.984375q0.546875 0.625 1.3125 0.625q0.78125 0 1.34375 -0.65625q0.5624962 -0.65625 0.5624962 -2.046875q0 -1.3125 -0.5468712 -1.96875q-0.546875 -0.671875 -1.296875 -0.671875q-0.75 0 -1.328125 0.703125q-0.578125 0.703125 -0.578125 2.03125zm5.912472 -0.03125q0 -1.921875 1.078125 -2.84375q0.890625 -0.765625 2.171875 -0.765625q1.421875 0 2.328125 0.9375q0.90625 0.921875 0.90625 2.578125q0 1.328125 -0.40625 2.09375q-0.390625 0.765625 -1.15625 1.1875q-0.765625 0.421875 -1.671875 0.421875q-1.453125 0 -2.359375 -0.921875q-0.890625 -0.9375 -0.890625 -2.6875zm1.203125 0q0 1.328125 0.578125 1.984375q0.59375 0.65625 1.46875 0.65625q0.875 0 1.453125 -0.65625q0.578125 -0.671875 0.578125 -2.03125q0 -1.28125 -0.59375 -1.9375q-0.578125 -0.65625 -1.4375 -0.65625q-0.875 0 -1.46875 0.65625q-0.578125 0.65625 -0.578125 1.984375zm11.131226 3.453125l0 -0.875q-0.65625 1.03125 -1.9375 1.03125q-0.8125 0 -1.515625 -0.453125q-0.6875 -0.453125 -1.078125 -1.265625q-0.375 -0.828125 -0.375 -1.890625q0 -1.03125 0.34375 -1.875q0.34375 -0.84375 1.03125 -1.28125q0.703125 -0.453125 1.546875 -0.453125q0.625 0 1.109375 0.265625q0.5 0.25 0.796875 0.671875l0 -3.421875l1.171875 0l0 9.546875l-1.09375 0zm-3.703125 -3.453125q0 1.328125 0.5625 1.984375q0.5625 0.65625 1.328125 0.65625q0.765625 0 1.296875 -0.625q0.53125 -0.625 0.53125 -1.90625q0 -1.421875 -0.546875 -2.078125q-0.546875 -0.671875 -1.34375 -0.671875q-0.78125 0 -1.3125 0.640625q-0.515625 0.625 -0.515625 2.0z" fill-rule="nonzero"/><path fill="#000000" d="m45.665806 103.43339l-1.046875 0l0 -6.71875q-0.390625 0.359375 -1.015625 0.734375q-0.609375 0.359375 -1.09375 0.53125l0 -1.015625q0.875 -0.421875 1.53125 -1.0q0.671875 -0.59375 0.953125 -1.15625l0.671875 0l0 8.625zm2.7050781 -4.234375q0 -1.53125 0.3125 -2.453125q0.3125 -0.9375 0.921875 -1.4375q0.625 -0.5 1.5625 -0.5q0.6875 0 1.203125 0.28125q0.53125 0.28125 0.875 0.8125q0.34375 0.515625 0.53125 1.265625q0.1875 0.75 0.1875 2.03125q0 1.515625 -0.3125 2.4375q-0.296875 0.921875 -0.921875 1.4375q-0.609375 0.5 -1.5625 0.5q-1.234375 0 -1.953125 -0.890625q-0.84375 -1.0625 -0.84375 -3.484375zm1.078125 0q0 2.109375 0.5 2.8125q0.5 0.703125 1.21875 0.703125q0.734375 0 1.21875 -0.703125q0.5 -0.703125 0.5 -2.8125q0 -2.125 -0.5 -2.8125q-0.484375 -0.703125 -1.234375 -0.703125q-0.71875 0 -1.15625 0.609375q-0.546875 0.78125 -0.546875 2.90625zm6.189453 4.234375l0 -1.203125l1.203125 0l0 1.203125l-1.203125 0zm8.287109 -1.015625l0 1.015625l-5.6875 0q0 -0.375 0.125 -0.734375q0.21875 -0.578125 0.6875 -1.140625q0.484375 -0.5625 1.390625 -1.296875q1.40625 -1.15625 1.890625 -1.828125q0.5 -0.671875 0.5 -1.265625q0 -0.625 -0.453125 -1.046875q-0.453125 -0.4375 -1.171875 -0.4375q-0.765625 0 -1.21875 0.453125q-0.453125 0.453125 -0.46875 1.265625l-1.078125 -0.109375q0.109375 -1.21875 0.828125 -1.84375q0.734375 -0.640625 1.96875 -0.640625q1.234375 0 1.953125 0.6875q0.71875 0.6875 0.71875 1.703125q0 0.515625 -0.21875 1.015625q-0.203125 0.484375 -0.703125 1.046875q-0.484375 0.546875 -1.609375 1.5q-0.953125 0.796875 -1.234375 1.09375q-0.265625 0.28125 -0.4375 0.5625l4.21875 0zm4.5019493 1.015625l0 -2.0625l-3.71875 0l0 -0.96875l3.921875 -5.5625l0.859375 0l0 5.5625l1.15625 0l0 0.96875l-1.15625 0l0 2.0625l-1.0625 0zm0 -3.03125l0 -3.859375l-2.6875 3.859375l2.6875 0zm6.673828 3.03125l0 -2.0625l-3.71875 0l0 -0.96875l3.921875 -5.5625l0.859375 0l0 5.5625l1.15625 0l0 0.96875l-1.15625 0l0 2.0625l-1.0625 0zm0 -3.03125l0 -3.859375l-2.6875 3.859375l2.6875 0zm3.8925781 3.03125l0 -1.203125l1.203125 0l0 1.203125l-1.203125 0zm2.7402344 -4.234375q0 -1.53125 0.3125 -2.453125q0.3125 -0.9375 0.921875 -1.4375q0.625 -0.5 1.5625 -0.5q0.6875 0 1.203125 0.28125q0.53125 0.28125 0.875 0.8125q0.34375 0.515625 0.53125 1.265625q0.1875 0.75 0.1875 2.03125q0 1.515625 -0.3125 2.4375q-0.296875 0.921875 -0.921875 1.4375q-0.609375 0.5 -1.5625 0.5q-1.234375 0 -1.953125 -0.890625q-0.84375 -1.0625 -0.84375 -3.484375zm1.078125 0q0 2.109375 0.5 2.8125q0.5 0.703125 1.21875 0.703125q0.734375 0 1.21875 -0.703125q0.5 -0.703125 0.5 -2.8125q0 -2.125 -0.5 -2.8125q-0.484375 -0.703125 -1.234375 -0.703125q-0.71875 0 -1.15625 0.609375q-0.546875 0.78125 -0.546875 2.90625zm6.189453 4.234375l0 -1.203125l1.203125 0l0 1.203125l-1.203125 0zm4.3652344 -4.65625q-0.65625 -0.25 -0.984375 -0.6875q-0.3125 -0.453125 -0.3125 -1.0625q0 -0.9375 0.671875 -1.578125q0.6875 -0.640625 1.796875 -0.640625q1.125 0 1.8125 0.65625q0.6875 0.65625 0.6875 1.59375q0 0.59375 -0.3125 1.03125q-0.3125 0.4375 -0.953125 0.6875q0.796875 0.25 1.203125 0.828125q0.40625 0.578125 0.40625 1.375q0 1.09375 -0.78125 1.84375q-0.765625 0.75 -2.046875 0.75q-1.265625 0 -2.046875 -0.75q-0.78125 -0.75 -0.78125 -1.875q0 -0.84375 0.421875 -1.40625q0.4375 -0.5625 1.21875 -0.765625zm-0.21875 -1.796875q0 0.609375 0.390625 1.0q0.40625 0.390625 1.03125 0.390625q0.609375 0 1.0 -0.375q0.390625 -0.390625 0.390625 -0.953125q0 -0.578125 -0.40625 -0.96875q-0.40625 -0.40625 -1.0 -0.40625q-0.609375 0 -1.015625 0.390625q-0.390625 0.390625 -0.390625 0.921875zm-0.328125 3.96875q0 0.453125 0.203125 0.875q0.21875 0.421875 0.640625 0.65625q0.421875 0.234375 0.90625 0.234375q0.75 0 1.234375 -0.484375q0.5 -0.484375 0.5 -1.234375q0 -0.765625 -0.5 -1.265625q-0.5 -0.5 -1.265625 -0.5q-0.75 0 -1.234375 0.5q-0.484375 0.484375 -0.484375 1.21875z" fill-rule="nonzero"/><path fill="#cfe2f3" d="m203.31496 93.34646l0 0c0 -41.834484 31.770157 -75.74803 70.96065 -75.74803l0 0c18.819916 0 36.86902 7.9805737 50.176727 22.186087c13.307709 14.205509 20.783875 33.472317 20.783875 53.561947l0 0c0 41.83448 -31.770142 75.748024 -70.9606 75.748024l0 0c-39.19049 0 -70.96065 -33.913544 -70.96065 -75.748024z" fill-rule="evenodd"/><path stroke="#000000" stroke-width="1.0" stroke-linejoin="round" stroke-linecap="butt" d="m203.31496 93.34646l0 0c0 -41.834484 31.770157 -75.74803 70.96065 -75.74803l0 0c18.819916 0 36.86902 7.9805737 50.176727 22.186087c13.307709 14.205509 20.783875 33.472317 20.783875 53.561947l0 0c0 41.83448 -31.770142 75.748024 -70.9606 75.748024l0 0c-39.19049 0 -70.96065 -33.913544 -70.96065 -75.748024z" fill-rule="evenodd"/><path fill="#000000" d="m233.41135 60.384583q0 -1.34375 0.75 -1.984375q0.625 -0.546875 1.515625 -0.546875q1.0 0 1.625 0.65625q0.640625 0.65625 0.640625 1.8125q0 0.9375 -0.28125 1.46875q-0.28125 0.53125 -0.8125 0.828125q-0.53125 0.296875 -1.171875 0.296875q-1.015625 0 -1.640625 -0.640625q-0.625 -0.65625 -0.625 -1.890625zm0.84375 0q0 0.9375 0.40625 1.40625q0.40625 0.453125 1.015625 0.453125q0.609375 0 1.015625 -0.46875q0.40625 -0.46875 0.40625 -1.421875q0 -0.890625 -0.40625 -1.34375q-0.40625 -0.46875 -1.015625 -0.46875q-0.609375 0 -1.015625 0.46875q-0.40625 0.453125 -0.40625 1.375zm5.984741 2.421875l-1.828125 -4.84375l0.859375 0l1.03125 2.90625q0.171875 0.46875 0.3125 0.96875q0.109375 -0.375 0.3125 -0.921875l1.078125 -2.953125l0.84375 0l-1.84375 4.84375l-0.765625 0zm3.3203125 0l0 -4.84375l0.75 0l0 0.6875q0.53125 -0.796875 1.53125 -0.796875q0.4375 0 0.796875 0.171875q0.375 0.15625 0.546875 0.40625q0.1875 0.25 0.265625 0.609375q0.046875 0.21875 0.046875 0.796875l0 2.96875l-0.828125 0l0 -2.9375q0 -0.5 -0.09375 -0.75q-0.09375 -0.25 -0.34375 -0.390625q-0.234375 -0.15625 -0.5625 -0.15625q-0.515625 0 -0.90625 0.328125q-0.375 0.328125 -0.375 1.265625l0 2.640625l-0.828125 0zm4.875366 -2.0l0 -0.828125l2.515625 0l0 0.828125l-2.515625 0zm3.2782135 2.40625l0.796875 0.109375q0.046875 0.375 0.28125 0.546875q0.296875 0.21875 0.828125 0.21875q0.5625 0 0.875 -0.234375q0.3125 -0.21875 0.421875 -0.625q0.0625 -0.25 0.0625 -1.0625q-0.546875 0.640625 -1.34375 0.640625q-1.0 0 -1.546875 -0.71875q-0.546875 -0.71875 -0.546875 -1.734375q0 -0.6875 0.25 -1.265625q0.25 -0.59375 0.71875 -0.90625q0.484375 -0.328125 1.125 -0.328125q0.859375 0 1.421875 0.703125l0 -0.59375l0.75 0l0 4.1875q0 1.125 -0.234375 1.59375q-0.21875 0.484375 -0.71875 0.75q-0.5 0.28125 -1.234375 0.28125q-0.859375 0 -1.390625 -0.390625q-0.53125 -0.390625 -0.515625 -1.171875zm0.671875 -2.90625q0 0.953125 0.375 1.390625q0.390625 0.4375 0.953125 0.4375q0.5625 0 0.9375 -0.4375q0.390625 -0.4375 0.390625 -1.375q0 -0.875 -0.390625 -1.328125q-0.390625 -0.453125 -0.953125 -0.453125q-0.546875 0 -0.9375 0.453125q-0.375 0.4375 -0.375 1.3125zm7.8128815 1.90625q-0.453125 0.390625 -0.875 0.546875q-0.421875 0.15625 -0.90625 0.15625q-0.796875 0 -1.21875 -0.390625q-0.421875 -0.390625 -0.421875 -1.0q0 -0.34375 0.15625 -0.640625q0.15625 -0.296875 0.421875 -0.46875q0.265625 -0.1875 0.59375 -0.28125q0.234375 -0.0625 0.71875 -0.109375q1.0 -0.125 1.46875 -0.28125q0 -0.171875 0 -0.21875q0 -0.5 -0.234375 -0.703125q-0.3125 -0.28125 -0.921875 -0.28125q-0.578125 0 -0.859375 0.203125q-0.28125 0.203125 -0.40625 0.71875l-0.796875 -0.109375q0.109375 -0.515625 0.359375 -0.828125q0.25 -0.328125 0.71875 -0.5q0.46875 -0.171875 1.09375 -0.171875q0.625 0 1.0 0.15625q0.390625 0.140625 0.578125 0.359375q0.1875 0.21875 0.25 0.5625q0.046875 0.203125 0.046875 0.75l0 1.09375q0 1.140625 0.046875 1.453125q0.0625 0.296875 0.21875 0.578125l-0.859375 0q-0.125 -0.25 -0.171875 -0.59375zm-0.0625 -1.828125q-0.453125 0.171875 -1.34375 0.296875q-0.5 0.078125 -0.71875 0.171875q-0.203125 0.09375 -0.3125 0.265625q-0.109375 0.171875 -0.109375 0.390625q0 0.328125 0.234375 0.546875q0.25 0.21875 0.734375 0.21875q0.46875 0 0.828125 -0.203125q0.375 -0.21875 0.5625 -0.578125q0.125 -0.265625 0.125 -0.8125l0 -0.296875zm3.8909912 1.6875l0.109375 0.71875q-0.34375 0.078125 -0.609375 0.078125q-0.453125 0 -0.703125 -0.140625q-0.234375 -0.140625 -0.34375 -0.359375q-0.09375 -0.234375 -0.09375 -0.984375l0 -2.78125l-0.609375 0l0 -0.640625l0.609375 0l0 -1.1875l0.8125 -0.5l0 1.6875l0.828125 0l0 0.640625l-0.828125 0l0 2.828125q0 0.359375 0.046875 0.46875q0.046875 0.09375 0.140625 0.15625q0.09375 0.046875 0.28125 0.046875q0.140625 0 0.359375 -0.03125zm4.1072693 -0.828125l0.84375 0.109375q-0.1875 0.75 -0.734375 1.15625q-0.546875 0.40625 -1.390625 0.40625q-1.0625 0 -1.6875 -0.65625q-0.609375 -0.65625 -0.609375 -1.828125q0 -1.21875 0.625 -1.890625q0.625 -0.6875 1.625 -0.6875q0.984375 0 1.59375 0.671875q0.609375 0.65625 0.609375 1.859375q0 0.0625 0 0.21875l-3.609375 0q0.046875 0.796875 0.453125 1.21875q0.40625 0.421875 1.015625 0.421875q0.453125 0 0.765625 -0.234375q0.3125 -0.234375 0.5 -0.765625zm-2.6875 -1.328125l2.703125 0q-0.0625 -0.609375 -0.3125 -0.90625q-0.390625 -0.46875 -1.015625 -0.46875q-0.5625 0 -0.953125 0.375q-0.375 0.375 -0.421875 1.0zm5.453491 2.890625l-1.46875 -4.84375l0.84375 0l0.765625 2.796875l0.296875 1.046875q0.015625 -0.078125 0.25 -1.0l0.765625 -2.84375l0.84375 0l0.71875 2.8125l0.25 0.921875l0.265625 -0.9375l0.828125 -2.796875l0.796875 0l-1.5 4.84375l-0.859375 0l-0.765625 -2.890625l-0.1875 -0.828125l-0.984375 3.71875l-0.859375 0zm9.002106 -0.59375q-0.453125 0.390625 -0.875 0.546875q-0.421875 0.15625 -0.90625 0.15625q-0.796875 0 -1.21875 -0.390625q-0.421875 -0.390625 -0.421875 -1.0q0 -0.34375 0.15625 -0.640625q0.15625 -0.296875 0.421875 -0.46875q0.265625 -0.1875 0.59375 -0.28125q0.234375 -0.0625 0.71875 -0.109375q1.0 -0.125 1.46875 -0.28125q0 -0.171875 0 -0.21875q0 -0.5 -0.234375 -0.703125q-0.3125 -0.28125 -0.921875 -0.28125q-0.578125 0 -0.859375 0.203125q-0.28125 0.203125 -0.40625 0.71875l-0.796875 -0.109375q0.109375 -0.515625 0.359375 -0.828125q0.25 -0.328125 0.71875 -0.5q0.46875 -0.171875 1.09375 -0.171875q0.625 0 1.0 0.15625q0.390625 0.140625 0.578125 0.359375q0.1875 0.21875 0.25 0.5625q0.046875 0.203125 0.046875 0.75l0 1.09375q0 1.140625 0.046875 1.453125q0.0625 0.296875 0.21875 0.578125l-0.859375 0q-0.125 -0.25 -0.171875 -0.59375zm-0.0625 -1.828125q-0.453125 0.171875 -1.34375 0.296875q-0.5 0.078125 -0.71875 0.171875q-0.203125 0.09375 -0.3125 0.265625q-0.109375 0.171875 -0.109375 0.390625q0 0.328125 0.234375 0.546875q0.25 0.21875 0.734375 0.21875q0.46875 0 0.828125 -0.203125q0.375 -0.21875 0.5625 -0.578125q0.125 -0.265625 0.125 -0.8125l0 -0.296875zm2.0628662 4.28125l-0.09375 -0.765625q0.265625 0.078125 0.46875 0.078125q0.28125 0 0.4375 -0.09375q0.171875 -0.09375 0.265625 -0.265625q0.078125 -0.109375 0.25 -0.609375q0.03125 -0.0625 0.078125 -0.1875l-1.828125 -4.859375l0.875 0l1.015625 2.8125q0.1875 0.53125 0.34375 1.109375q0.140625 -0.5625 0.34375 -1.09375l1.03125 -2.828125l0.8125 0l-1.84375 4.921875q-0.28125 0.796875 -0.453125 1.09375q-0.21875 0.40625 -0.5 0.59375q-0.28125 0.203125 -0.671875 0.203125q-0.234375 0 -0.53125 -0.109375zm4.3828125 -3.859375l0 -0.828125l2.515625 0l0 0.828125l-2.515625 0zm3.4188538 2.0l0 -4.84375l0.734375 0l0 0.734375q0.28125 -0.515625 0.515625 -0.671875q0.25 -0.171875 0.53125 -0.171875q0.421875 0 0.84375 0.265625l-0.28125 0.765625q-0.296875 -0.171875 -0.609375 -0.171875q-0.265625 0 -0.484375 0.15625q-0.203125 0.15625 -0.296875 0.453125q-0.140625 0.4375 -0.140625 0.953125l0 2.53125l-0.8125 0zm2.8094482 -2.421875q0 -1.34375 0.75 -1.984375q0.625 -0.546875 1.515625 -0.546875q1.0 0 1.625 0.65625q0.640625 0.65625 0.640625 1.8125q0 0.9375 -0.28125 1.46875q-0.28125 0.53125 -0.8125 0.828125q-0.53125 0.296875 -1.171875 0.296875q-1.015625 0 -1.640625 -0.640625q-0.625 -0.65625 -0.625 -1.890625zm0.84375 0q0 0.9375 0.40625 1.40625q0.40625 0.453125 1.015625 0.453125q0.609375 0 1.015625 -0.46875q0.40625 -0.46875 0.40625 -1.421875q0 -0.890625 -0.40625 -1.34375q-0.40625 -0.46875 -1.015625 -0.46875q-0.609375 0 -1.015625 0.46875q-0.40625 0.453125 -0.40625 1.375zm7.812866 2.421875l0 -0.703125q-0.5625 0.8125 -1.53125 0.8125q-0.421875 0 -0.796875 -0.15625q-0.375 -0.171875 -0.5625 -0.421875q-0.171875 -0.25 -0.25 -0.609375q-0.046875 -0.234375 -0.046875 -0.765625l0 -3.0l0.828125 0l0 2.6875q0 0.640625 0.046875 0.875q0.078125 0.3125 0.328125 0.5q0.25 0.1875 0.609375 0.1875q0.375 0 0.703125 -0.1875q0.328125 -0.1875 0.453125 -0.515625q0.140625 -0.328125 0.140625 -0.953125l0 -2.59375l0.8125 0l0 4.84375l-0.734375 0zm3.8128662 -0.734375l0.109375 0.71875q-0.34375 0.078125 -0.609375 0.078125q-0.453125 0 -0.703125 -0.140625q-0.234375 -0.140625 -0.34375 -0.359375q-0.09375 -0.234375 -0.09375 -0.984375l0 -2.78125l-0.609375 0l0 -0.640625l0.609375 0l0 -1.1875l0.8125 -0.5l0 1.6875l0.828125 0l0 0.640625l-0.828125 0l0 2.828125q0 0.359375 0.046875 0.46875q0.046875 0.09375 0.140625 0.15625q0.09375 0.046875 0.28125 0.046875q0.140625 0 0.359375 -0.03125zm4.1073 -0.828125l0.84375 0.109375q-0.1875 0.75 -0.734375 1.15625q-0.546875 0.40625 -1.390625 0.40625q-1.0625 0 -1.6875 -0.65625q-0.609375 -0.65625 -0.609375 -1.828125q0 -1.21875 0.625 -1.890625q0.625 -0.6875 1.625 -0.6875q0.984375 0 1.59375 0.671875q0.609375 0.65625 0.609375 1.859375q0 0.0625 0 0.21875l-3.609375 0q0.046875 0.796875 0.453125 1.21875q0.40625 0.421875 1.015625 0.421875q0.453125 0 0.765625 -0.234375q0.3125 -0.234375 0.5 -0.765625zm-2.6875 -1.328125l2.703125 0q-0.0625 -0.609375 -0.3125 -0.90625q-0.390625 -0.46875 -1.015625 -0.46875q-0.5625 0 -0.953125 0.375q-0.375 0.375 -0.421875 1.0zm4.562866 2.890625l0 -4.84375l0.734375 0l0 0.734375q0.28125 -0.515625 0.515625 -0.671875q0.25 -0.171875 0.53125 -0.171875q0.421875 0 0.84375 0.265625l-0.28125 0.765625q-0.296875 -0.171875 -0.609375 -0.171875q-0.265625 0 -0.484375 0.15625q-0.203125 0.15625 -0.296875 0.453125q-0.140625 0.4375 -0.140625 0.953125l0 2.53125l-0.8125 0z" fill-rule="nonzero"/><path fill="#000000" d="m240.6998 75.08646l0 -7.625l1.015625 0l0 6.71875l3.75 0l0 0.90625l-4.765625 0zm5.5046234 -2.765625q0 -1.53125 0.84375 -2.265625q0.71875 -0.625 1.734375 -0.625q1.140625 0 1.859375 0.75q0.734375 0.75 0.734375 2.0625q0 1.0625 -0.328125 1.6875q-0.3125 0.609375 -0.921875 0.953125q-0.609375 0.328125 -1.34375 0.328125q-1.15625 0 -1.875 -0.734375q-0.703125 -0.75 -0.703125 -2.15625zm0.953125 0q0 1.0625 0.46875 1.59375q0.46875 0.53125 1.15625 0.53125q0.703125 0 1.15625 -0.53125q0.46875 -0.53125 0.46875 -1.625q0 -1.015625 -0.46875 -1.546875q-0.453125 -0.53125 -1.15625 -0.53125q-0.6875 0 -1.15625 0.53125q-0.46875 0.515625 -0.46875 1.578125zm5.1452484 3.21875l0.90625 0.140625q0.0625 0.421875 0.328125 0.609375q0.34375 0.265625 0.9375 0.265625q0.65625 0 1.0 -0.265625q0.359375 -0.25 0.484375 -0.71875q0.078125 -0.296875 0.078125 -1.203125q-0.625 0.71875 -1.53125 0.71875q-1.140625 0 -1.765625 -0.8125q-0.625 -0.828125 -0.625 -1.984375q0 -0.78125 0.28125 -1.453125q0.296875 -0.671875 0.828125 -1.03125q0.546875 -0.375 1.28125 -0.375q0.984375 0 1.609375 0.796875l0 -0.671875l0.875 0l0 4.78125q0 1.296875 -0.265625 1.828125q-0.265625 0.546875 -0.84375 0.859375q-0.5625 0.3125 -1.390625 0.3125q-0.984375 0 -1.59375 -0.453125q-0.609375 -0.4375 -0.59375 -1.34375zm0.78125 -3.3125q0 1.078125 0.421875 1.578125q0.4375 0.5 1.078125 0.5q0.65625 0 1.09375 -0.484375q0.4375 -0.5 0.4375 -1.5625q0 -1.015625 -0.453125 -1.53125q-0.453125 -0.515625 -1.09375 -0.515625q-0.609375 0 -1.046875 0.515625q-0.4375 0.5 -0.4375 1.5zm5.3171387 -3.6875l0 -1.078125l0.9375 0l0 1.078125l-0.9375 0zm0 6.546875l0 -5.53125l0.9375 0l0 5.53125l-0.9375 0zm5.976837 -2.03125l0.921875 0.125q-0.15625 0.953125 -0.78125 1.5q-0.625 0.53125 -1.53125 0.53125q-1.125 0 -1.8125 -0.734375q-0.6875 -0.75 -0.6875 -2.125q0 -0.90625 0.296875 -1.578125q0.296875 -0.671875 0.890625 -1.0q0.609375 -0.34375 1.328125 -0.34375q0.890625 0 1.46875 0.46875q0.578125 0.453125 0.734375 1.28125l-0.90625 0.140625q-0.140625 -0.546875 -0.46875 -0.828125q-0.328125 -0.28125 -0.796875 -0.28125q-0.703125 0 -1.15625 0.515625q-0.4375 0.5 -0.4375 1.59375q0 1.109375 0.421875 1.625q0.4375 0.5 1.125 0.5q0.546875 0 0.90625 -0.34375q0.375 -0.34375 0.484375 -1.046875zm5.328125 1.34375q-0.53125 0.453125 -1.015625 0.640625q-0.46875 0.171875 -1.015625 0.171875q-0.921875 0 -1.40625 -0.4375q-0.484375 -0.453125 -0.484375 -1.140625q0 -0.40625 0.171875 -0.734375q0.1875 -0.34375 0.484375 -0.546875q0.3125 -0.203125 0.6875 -0.3125q0.265625 -0.0625 0.828125 -0.140625q1.125 -0.125 1.671875 -0.3125q0 -0.203125 0 -0.25q0 -0.578125 -0.265625 -0.8125q-0.359375 -0.3125 -1.0625 -0.3125q-0.65625 0 -0.984375 0.234375q-0.3125 0.234375 -0.453125 0.8125l-0.921875 -0.125q0.125 -0.578125 0.40625 -0.9375q0.296875 -0.375 0.828125 -0.5625q0.546875 -0.203125 1.25 -0.203125q0.71875 0 1.15625 0.171875q0.4375 0.171875 0.640625 0.421875q0.21875 0.25 0.296875 0.640625q0.046875 0.234375 0.046875 0.859375l0 1.25q0 1.296875 0.0625 1.65625q0.0625 0.34375 0.234375 0.65625l-0.96875 0q-0.15625 -0.296875 -0.1875 -0.6875zm-0.078125 -2.078125q-0.515625 0.203125 -1.53125 0.34375q-0.578125 0.078125 -0.828125 0.1875q-0.234375 0.109375 -0.359375 0.3125q-0.125 0.1875 -0.125 0.4375q0 0.375 0.28125 0.625q0.28125 0.25 0.828125 0.25q0.53125 0 0.953125 -0.234375q0.421875 -0.234375 0.625 -0.65625q0.15625 -0.3125 0.15625 -0.9375l0 -0.328125zm2.3796387 2.765625l0 -7.625l0.9375 0l0 7.625l-0.9375 0zm5.484375 0l0 -7.625l3.375 0q1.015625 0 1.546875 0.203125q0.53125 0.203125 0.84375 0.734375q0.328125 0.515625 0.328125 1.140625q0 0.8125 -0.53125 1.375q-0.515625 0.546875 -1.625 0.703125q0.40625 0.1875 0.609375 0.375q0.453125 0.40625 0.84375 1.015625l1.328125 2.078125l-1.265625 0l-1.015625 -1.59375q-0.4375 -0.6875 -0.734375 -1.046875q-0.28125 -0.359375 -0.515625 -0.5q-0.21875 -0.15625 -0.453125 -0.203125q-0.171875 -0.046875 -0.5625 -0.046875l-1.171875 0l0 3.390625l-1.0 0zm1.0 -4.265625l2.171875 0q0.6875 0 1.078125 -0.140625q0.390625 -0.140625 0.59375 -0.453125q0.203125 -0.3125 0.203125 -0.6875q0 -0.546875 -0.390625 -0.890625q-0.390625 -0.34375 -1.234375 -0.34375l-2.421875 0l0 2.515625zm6.211212 1.5q0 -1.53125 0.84375 -2.265625q0.71875 -0.625 1.734375 -0.625q1.140625 0 1.859375 0.75q0.734375 0.75 0.734375 2.0625q0 1.0625 -0.328125 1.6875q-0.3125 0.609375 -0.921875 0.953125q-0.609375 0.328125 -1.34375 0.328125q-1.15625 0 -1.875 -0.734375q-0.703125 -0.75 -0.703125 -2.15625zm0.953125 0q0 1.0625 0.46875 1.59375q0.46875 0.53125 1.15625 0.53125q0.703125 0 1.15625 -0.53125q0.46875 -0.53125 0.46875 -1.625q0 -1.015625 -0.46875 -1.546875q-0.453125 -0.53125 -1.15625 -0.53125q-0.6875 0 -1.15625 0.53125q-0.46875 0.515625 -0.46875 1.578125zm8.942139 2.765625l0 -0.8125q-0.65625 0.9375 -1.75 0.9375q-0.5 0 -0.921875 -0.1875q-0.421875 -0.1875 -0.625 -0.46875q-0.203125 -0.28125 -0.296875 -0.703125q-0.046875 -0.265625 -0.046875 -0.875l0 -3.421875l0.9375 0l0 3.0625q0 0.734375 0.046875 1.0q0.09375 0.359375 0.375 0.578125q0.296875 0.203125 0.703125 0.203125q0.421875 0 0.796875 -0.203125q0.375 -0.21875 0.515625 -0.59375q0.15625 -0.375 0.15625 -1.078125l0 -2.96875l0.9375 0l0 5.53125l-0.828125 0zm4.348358 -0.84375l0.125 0.828125q-0.390625 0.09375 -0.703125 0.09375q-0.5 0 -0.78125 -0.15625q-0.28125 -0.171875 -0.40625 -0.4375q-0.109375 -0.265625 -0.109375 -1.109375l0 -3.171875l-0.6875 0l0 -0.734375l0.6875 0l0 -1.359375l0.9375 -0.5625l0 1.921875l0.9375 0l0 0.734375l-0.9375 0l0 3.234375q0 0.390625 0.046875 0.515625q0.046875 0.109375 0.15625 0.1875q0.109375 0.0625 0.328125 0.0625q0.15625 0 0.40625 -0.046875zm4.695038 -0.9375l0.96875 0.125q-0.234375 0.84375 -0.859375 1.3125q-0.609375 0.46875 -1.578125 0.46875q-1.203125 0 -1.921875 -0.75q-0.703125 -0.75 -0.703125 -2.09375q0 -1.390625 0.71875 -2.15625q0.71875 -0.78125 1.859375 -0.78125q1.109375 0 1.8125 0.765625q0.703125 0.75 0.703125 2.125q0 0.078125 0 0.234375l-4.125 0q0.046875 0.921875 0.515625 1.40625q0.46875 0.484375 1.15625 0.484375q0.515625 0 0.875 -0.265625q0.359375 -0.28125 0.578125 -0.875zm-3.078125 -1.515625l3.09375 0q-0.0625 -0.6875 -0.359375 -1.046875q-0.453125 -0.53125 -1.15625 -0.53125q-0.640625 0 -1.09375 0.4375q-0.4375 0.421875 -0.484375 1.140625zm5.207733 3.296875l0 -5.53125l0.84375 0l0 0.84375q0.328125 -0.59375 0.59375 -0.78125q0.28125 -0.1875 0.609375 -0.1875q0.46875 0 0.953125 0.3125l-0.3125 0.859375q-0.34375 -0.203125 -0.6875 -0.203125q-0.3125 0 -0.5625 0.1875q-0.234375 0.1875 -0.34375 0.515625q-0.15625 0.5 -0.15625 1.09375l0 2.890625l-0.9375 0z" fill-rule="nonzero"/><path fill="#000000" d="m260.89105 88.08646l0 -7.625l2.875 0q0.75 0 1.15625 0.0625q0.5625 0.09375 0.9375 0.359375q0.390625 0.265625 0.609375 0.75q0.234375 0.46875 0.234375 1.03125q0 0.96875 -0.625 1.65625q-0.609375 0.671875 -2.234375 0.671875l-1.953125 0l0 3.09375l-1.0 0zm1.0 -4.0l1.96875 0q0.984375 0 1.390625 -0.359375q0.421875 -0.375 0.421875 -1.03125q0 -0.484375 -0.25 -0.8125q-0.234375 -0.34375 -0.640625 -0.453125q-0.25 -0.078125 -0.9375 -0.078125l-1.953125 0l0 2.734375zm5.6388855 1.234375q0 -1.53125 0.84375 -2.265625q0.71875 -0.625 1.734375 -0.625q1.140625 0 1.859375 0.75q0.734375 0.75 0.734375 2.0625q0 1.0625 -0.328125 1.6875q-0.3125 0.609375 -0.921875 0.953125q-0.609375 0.328125 -1.34375 0.328125q-1.15625 0 -1.875 -0.734375q-0.703125 -0.75 -0.703125 -2.15625zm0.953125 0q0 1.0625 0.46875 1.59375q0.46875 0.53125 1.15625 0.53125q0.703125 0 1.15625 -0.53125q0.46875 -0.53125 0.46875 -1.625q0 -1.015625 -0.46875 -1.546875q-0.453125 -0.53125 -1.15625 -0.53125q-0.6875 0 -1.15625 0.53125q-0.46875 0.515625 -0.46875 1.578125zm5.301483 2.765625l0 -7.625l0.9375 0l0 7.625l-0.9375 0zm2.3831177 -6.546875l0 -1.078125l0.9375 0l0 1.078125l-0.9375 0zm0 6.546875l0 -5.53125l0.9375 0l0 5.53125l-0.9375 0zm5.976837 -2.03125l0.921875 0.125q-0.15625 0.953125 -0.78125 1.5q-0.625 0.53125 -1.53125 0.53125q-1.125 0 -1.8125 -0.734375q-0.6875 -0.75 -0.6875 -2.125q0 -0.90625 0.296875 -1.578125q0.296875 -0.671875 0.890625 -1.0q0.609375 -0.34375 1.328125 -0.34375q0.890625 0 1.46875 0.46875q0.578125 0.453125 0.734375 1.28125l-0.90625 0.140625q-0.140625 -0.546875 -0.46875 -0.828125q-0.328125 -0.28125 -0.796875 -0.28125q-0.703125 0 -1.15625 0.515625q-0.4375 0.5 -0.4375 1.59375q0 1.109375 0.421875 1.625q0.4375 0.5 1.125 0.5q0.546875 0 0.90625 -0.34375q0.375 -0.34375 0.484375 -1.046875zm1.671875 4.15625l-0.09375 -0.875q0.296875 0.078125 0.53125 0.078125q0.3125 0 0.5 -0.109375q0.1875 -0.09375 0.3125 -0.28125q0.078125 -0.140625 0.28125 -0.703125q0.03125 -0.078125 0.078125 -0.21875l-2.09375 -5.546875l1.015625 0l1.140625 3.203125q0.234375 0.609375 0.40625 1.28125q0.15625 -0.640625 0.375 -1.265625l1.1875 -3.21875l0.9375 0l-2.109375 5.625q-0.328125 0.90625 -0.515625 1.25q-0.25 0.46875 -0.578125 0.6875q-0.3125 0.21875 -0.765625 0.21875q-0.265625 0 -0.609375 -0.125z" fill-rule="nonzero"/><path fill="#000000" d="m256.801 102.36646l1.796875 -8.59375l1.40625 0l0.859375 5.5625q0.171875 1.109375 0.234375 2.109375q0.359375 -0.859375 1.1875 -2.34375l3.015625 -5.328125l1.4375 0l-1.796875 8.59375l-1.125 0l0.890625 -4.171875q0.3125 -1.453125 0.890625 -3.25q-0.375 0.828125 -0.90625 1.796875l-3.203125 5.625l-1.109375 0l-0.859375 -5.515625q-0.125 -0.75 -0.171875 -1.75q-0.140625 1.125 -0.28125 1.78125l-1.15625 5.484375l-1.109375 0zm14.058594 -0.78125q-0.546875 0.484375 -1.0625 0.703125q-0.5 0.21875 -1.09375 0.21875q-0.859375 0 -1.390625 -0.5q-0.515625 -0.515625 -0.515625 -1.3125q0 -0.515625 0.234375 -0.90625q0.234375 -0.40625 0.625 -0.640625q0.390625 -0.25 0.96875 -0.359375q0.359375 -0.078125 1.359375 -0.109375q1.0 -0.046875 1.421875 -0.21875q0.125 -0.4375 0.125 -0.71875q0 -0.375 -0.265625 -0.578125q-0.375 -0.296875 -1.078125 -0.296875q-0.671875 0 -1.09375 0.296875q-0.421875 0.296875 -0.625 0.84375l-1.0625 -0.09375q0.328125 -0.921875 1.03125 -1.40625q0.71875 -0.5 1.796875 -0.5q1.15625 0 1.828125 0.546875q0.515625 0.40625 0.515625 1.0625q0 0.5 -0.140625 1.15625l-0.34375 1.546875q-0.171875 0.734375 -0.171875 1.203125q0 0.296875 0.140625 0.84375l-1.078125 0q-0.09375 -0.3125 -0.125 -0.78125zm0.390625 -2.375q-0.21875 0.09375 -0.484375 0.140625q-0.25 0.046875 -0.84375 0.09375q-0.921875 0.078125 -1.3125 0.21875q-0.375 0.125 -0.578125 0.40625q-0.1875 0.265625 -0.1875 0.59375q0 0.453125 0.3125 0.734375q0.3125 0.28125 0.875 0.28125q0.53125 0 1.015625 -0.265625q0.484375 -0.28125 0.765625 -0.78125q0.28125 -0.5 0.4375 -1.421875zm4.564453 2.296875l-0.171875 0.859375q-0.375 0.109375 -0.734375 0.109375q-0.640625 0 -1.015625 -0.3125q-0.28125 -0.234375 -0.28125 -0.640625q0 -0.203125 0.15625 -0.9375l0.75 -3.625l-0.828125 0l0.171875 -0.8125l0.828125 0l0.328125 -1.53125l1.203125 -0.734375l-0.46875 2.265625l1.046875 0l-0.171875 0.8125l-1.046875 0l-0.71875 3.4375q-0.140625 0.65625 -0.140625 0.796875q0 0.1875 0.109375 0.28125q0.109375 0.09375 0.359375 0.09375q0.359375 0 0.625 -0.0625zm5.1464844 -1.40625l1.0625 0.109375q-0.390625 1.171875 -1.125 1.734375q-0.734375 0.5625 -1.671875 0.5625q-1.015625 0 -1.65625 -0.65625q-0.625 -0.65625 -0.625 -1.828125q0 -1.03125 0.40625 -2.015625q0.40625 -0.984375 1.15625 -1.484375q0.75 -0.515625 1.71875 -0.515625q1.0 0 1.578125 0.5625q0.59375 0.5625 0.59375 1.5l-1.03125 0.0625q-0.015625 -0.59375 -0.359375 -0.921875q-0.328125 -0.328125 -0.875 -0.328125q-0.640625 0 -1.109375 0.40625q-0.46875 0.390625 -0.734375 1.21875q-0.265625 0.828125 -0.265625 1.578125q0 0.796875 0.34375 1.203125q0.359375 0.390625 0.875 0.390625q0.515625 0 0.984375 -0.390625q0.46875 -0.390625 0.734375 -1.1875zm1.71875 2.265625l1.78125 -8.59375l1.0625 0l-0.6875 3.296875q0.59375 -0.5625 1.09375 -0.8125q0.515625 -0.25 1.0625 -0.25q0.765625 0 1.1875 0.40625q0.4375 0.40625 0.4375 1.078125q0 0.328125 -0.1875 1.203125l-0.765625 3.671875l-1.0625 0l0.796875 -3.765625q0.171875 -0.828125 0.171875 -1.03125q0 -0.3125 -0.21875 -0.5q-0.203125 -0.1875 -0.609375 -0.1875q-0.578125 0 -1.09375 0.296875q-0.515625 0.296875 -0.8125 0.828125q-0.296875 0.515625 -0.546875 1.6875l-0.5625 2.671875l-1.046875 0zm8.001953 -5.015625l0.25 -1.203125l1.203125 0l-0.25 1.203125l-1.203125 0zm-1.046875 5.015625l0.25 -1.203125l1.203125 0l-0.265625 1.203125l-1.1875 0z" fill-rule="nonzero"/><path fill="#000000" d="m247.13985 116.366455l1.359375 -6.484375q-0.875 0.6875 -2.46875 1.109375l0.1875 -0.96875q0.796875 -0.3125 1.5625 -0.8125q0.78125 -0.515625 1.15625 -0.90625q0.234375 -0.234375 0.453125 -0.5625l0.609375 0l-1.796875 8.625l-1.0625 0zm4.626953 -2.8125q0 -1.09375 0.328125 -2.21875q0.328125 -1.125 0.71875 -1.796875q0.40625 -0.671875 0.828125 -1.046875q0.4375 -0.390625 0.84375 -0.5625q0.421875 -0.1875 0.921875 -0.1875q0.98439026 0 1.6406403 0.734375q0.65625 0.734375 0.65625 2.109375q0 1.421875 -0.453125 2.828125q-0.53125 1.640625 -1.5000153 2.46875q-0.734375 0.625 -1.6875 0.625q-0.953125 0 -1.625 -0.75q-0.671875 -0.765625 -0.671875 -2.203125zm1.03125 0.265625q0 0.78125 0.265625 1.234375q0.359375 0.609375 1.0625 0.609375q0.609375 0 1.109375 -0.546875q0.734375 -0.796875 1.0937653 -2.296875q0.375 -1.515625 0.375 -2.484375q0 -0.921875 -0.359375 -1.328125q-0.35939026 -0.421875 -0.93751526 -0.421875q-0.421875 0 -0.796875 0.21875q-0.359375 0.21875 -0.6875 0.75q-0.46875 0.734375 -0.828125 2.21875q-0.296875 1.265625 -0.296875 2.046875zm5.4863434 2.546875l0.25 -1.203125l1.203125 0l-0.25 1.203125l-1.203125 0zm3.3496094 0q0.171875 -0.765625 0.453125 -1.28125q0.296875 -0.53125 0.765625 -0.984375q0.484375 -0.46875 1.859375 -1.5625q0.828125 -0.671875 1.140625 -0.984375q0.4375 -0.453125 0.640625 -0.890625q0.125 -0.296875 0.125 -0.65625q0 -0.59375 -0.421875 -1.0q-0.40625 -0.421875 -1.015625 -0.421875q-0.609375 0 -1.0625 0.421875q-0.453125 0.421875 -0.640625 1.34375l-1.046875 -0.15625q0.15625 -1.140625 0.890625 -1.796875q0.734375 -0.65625 1.828125 -0.65625q0.734375 0 1.328125 0.3125q0.59375 0.296875 0.890625 0.84375q0.3125 0.546875 0.3125 1.140625q0 0.859375 -0.609375 1.640625q-0.375 0.5 -2.203125 1.9375q-0.796875 0.625 -1.1875 1.03125q-0.375 0.390625 -0.5625 0.75l3.84375 0l-0.203125 0.96875l-5.125 0zm9.564453 0l0.453125 -2.1875l-3.5 0l0.21875 -1.046875l4.8125 -5.359375l0.875 0l-1.15625 5.46875l1.21875 0l-0.203125 0.9375l-1.203125 0l-0.46875 2.1875l-1.046875 0zm0.65625 -3.125l0.75 -3.59375l-3.203125 3.59375l2.453125 0zm6.017578 3.125l0.453125 -2.1875l-3.5 0l0.21875 -1.046875l4.8125 -5.359375l0.875 0l-1.15625 5.46875l1.21875 0l-0.203125 0.9375l-1.203125 0l-0.46875 2.1875l-1.046875 0zm0.65625 -3.125l0.75 -3.59375l-3.203125 3.59375l2.453125 0zm3.1113281 3.125l0.25 -1.203125l1.203125 0l-0.25 1.203125l-1.203125 0zm3.4902344 -2.8125q0 -1.09375 0.328125 -2.21875q0.328125 -1.125 0.71875 -1.796875q0.40625 -0.671875 0.828125 -1.046875q0.4375 -0.390625 0.84375 -0.5625q0.421875 -0.1875 0.921875 -0.1875q0.984375 0 1.640625 0.734375q0.65625 0.734375 0.65625 2.109375q0 1.421875 -0.453125 2.828125q-0.53125 1.640625 -1.5 2.46875q-0.734375 0.625 -1.6875 0.625q-0.953125 0 -1.625 -0.75q-0.671875 -0.765625 -0.671875 -2.203125zm1.03125 0.265625q0 0.78125 0.265625 1.234375q0.359375 0.609375 1.0625 0.609375q0.609375 0 1.109375 -0.546875q0.734375 -0.796875 1.09375 -2.296875q0.375 -1.515625 0.375 -2.484375q0 -0.921875 -0.359375 -1.328125q-0.359375 -0.421875 -0.9375 -0.421875q-0.421875 0 -0.796875 0.21875q-0.359375 0.21875 -0.6875 0.75q-0.46875 0.734375 -0.828125 2.21875q-0.296875 1.265625 -0.296875 2.046875zm5.486328 2.546875l0.25 -1.203125l1.203125 0l-0.25 1.203125l-1.203125 0zm5.3496094 -4.71875q-0.46875 -0.265625 -0.71875 -0.671875q-0.234375 -0.421875 -0.234375 -0.890625q0 -0.78125 0.5625 -1.453125q0.75 -0.890625 2.03125 -0.890625q1.125 0 1.78125 0.609375q0.65625 0.609375 0.65625 1.484375q0 0.625 -0.359375 1.125q-0.34375 0.5 -1.09375 0.8125q0.515625 0.3125 0.734375 0.671875q0.28125 0.484375 0.28125 1.109375q0 1.15625 -0.8125 2.0625q-0.8125 0.90625 -2.171875 0.90625q-1.09375 0 -1.78125 -0.671875q-0.6875 -0.671875 -0.6875 -1.671875q0 -0.9375 0.484375 -1.609375q0.5 -0.6875 1.328125 -0.921875zm0.09375 -1.515625q0 0.546875 0.34375 0.890625q0.359375 0.328125 0.984375 0.328125q0.71875 0 1.171875 -0.4375q0.453125 -0.453125 0.453125 -1.09375q0 -0.546875 -0.359375 -0.890625q-0.34375 -0.34375 -0.96875 -0.34375q-0.46875 0 -0.859375 0.21875q-0.390625 0.21875 -0.578125 0.59375q-0.1875 0.375 -0.1875 0.734375zm-0.828125 4.140625q0 0.359375 0.171875 0.6875q0.171875 0.328125 0.515625 0.515625q0.359375 0.1875 0.8125 0.1875q0.859375 0 1.390625 -0.796875q0.421875 -0.640625 0.421875 -1.375q0 -0.59375 -0.390625 -0.96875q-0.390625 -0.390625 -1.015625 -0.390625q-0.796875 0 -1.359375 0.59375q-0.546875 0.59375 -0.546875 1.546875zm5.361328 2.09375l0.25 -1.203125l1.203125 0l-0.21875 1.046875q-0.203125 0.953125 -0.625 1.390625q-0.40625 0.4375 -0.984375 0.5l0.109375 -0.46875q0.6875 -0.1875 0.921875 -1.265625l-0.65625 0z" fill-rule="nonzero"/><path fill="#000000" d="m242.92012 132.75708l1.796875 -8.609375l0.984375 0l-0.1875 0.859375q0.546875 -0.5625 0.96875 -0.78125q0.4375 -0.21875 0.921875 -0.21875q0.890625 0 1.46875 0.65625q0.59375 0.640625 0.59375 1.84375q0 0.96875 -0.328125 1.765625q-0.3125 0.796875 -0.78125 1.296875q-0.46875 0.484375 -0.953125 0.71875q-0.484375 0.21875 -0.984375 0.21875q-1.125 0 -1.734375 -1.140625l-0.703125 3.390625l-1.0625 0zm2.09375 -4.9375q0 0.703125 0.109375 0.96875q0.140625 0.375 0.46875 0.609375q0.34375 0.234375 0.78125 0.234375q0.921875 0 1.484375 -1.015625q0.5625 -1.03125 0.5625 -2.109375q0 -0.78125 -0.390625 -1.21875q-0.375 -0.4375 -0.9375 -0.4375q-0.40625 0 -0.75 0.21875q-0.34375 0.21875 -0.640625 0.640625q-0.296875 0.421875 -0.5 1.046875q-0.1875 0.609375 -0.1875 1.0625zm5.111328 2.546875l1.796875 -8.59375l1.0625 0l-1.109375 5.328125l3.09375 -2.953125l1.3906403 0l-2.6562653 2.3125l1.609375 3.90625l-1.15625 0l-1.25 -3.1875l-1.28125 1.109375l-0.4375 2.078125l-1.0625 0zm8.468765 -0.859375l-0.171875 0.859375q-0.375 0.109375 -0.734375 0.109375q-0.640625 0 -1.015625 -0.3125q-0.28125 -0.234375 -0.28125 -0.640625q0 -0.203125 0.15625 -0.9375l0.75 -3.625l-0.828125 0l0.171875 -0.8125l0.828125 0l0.328125 -1.53125l1.203125 -0.734375l-0.46875 2.265625l1.046875 0l-0.171875 0.8125l-1.046875 0l-0.71875 3.4375q-0.140625 0.65625 -0.140625 0.796875q0 0.1875 0.109375 0.28125q0.109375 0.09375 0.359375 0.09375q0.359375 0 0.625 -0.0625zm1.0214844 -1.71875l0.21875 -1.0625l3.234375 0l-0.21875 1.0625l-3.234375 0zm3.8242188 2.578125l1.296875 -6.21875l1.0625 0l-0.21875 1.015625q0.59375 -0.65625 1.0625 -0.90625q0.46875 -0.25 1.015625 -0.25q0.578125 0 0.96875 0.3125q0.390625 0.296875 0.515625 0.84375q0.46875 -0.578125 0.984375 -0.859375q0.53125 -0.296875 1.109375 -0.296875q0.78125 0 1.171875 0.375q0.390625 0.359375 0.390625 1.03125q0 0.28125 -0.140625 0.9375l-0.828125 4.015625l-1.0625 0l0.859375 -4.109375q0.109375 -0.515625 0.109375 -0.71875q0 -0.3125 -0.203125 -0.484375q-0.1875 -0.171875 -0.53125 -0.171875q-0.484375 0 -0.984375 0.28125q-0.484375 0.28125 -0.765625 0.75q-0.265625 0.46875 -0.46875 1.4375l-0.625 3.015625l-1.0625 0l0.875 -4.203125q0.09375 -0.421875 0.09375 -0.609375q0 -0.296875 -0.1875 -0.484375q-0.1875 -0.1875 -0.5 -0.1875q-0.453125 0 -0.953125 0.28125q-0.484375 0.28125 -0.796875 0.796875q-0.3125 0.515625 -0.515625 1.46875l-0.609375 2.9375l-1.0625 0zm14.199219 -0.78125q-0.546875 0.484375 -1.0625 0.703125q-0.5 0.21875 -1.09375 0.21875q-0.859375 0 -1.390625 -0.5q-0.515625 -0.515625 -0.515625 -1.3125q0 -0.515625 0.234375 -0.90625q0.234375 -0.40625 0.625 -0.640625q0.390625 -0.25 0.96875 -0.359375q0.359375 -0.078125 1.359375 -0.109375q1.0 -0.046875 1.421875 -0.21875q0.125 -0.4375 0.125 -0.71875q0 -0.375 -0.265625 -0.578125q-0.375 -0.296875 -1.078125 -0.296875q-0.671875 0 -1.09375 0.296875q-0.421875 0.296875 -0.625 0.84375l-1.0625 -0.09375q0.328125 -0.921875 1.03125 -1.40625q0.71875 -0.5 1.796875 -0.5q1.15625 0 1.828125 0.546875q0.515625 0.40625 0.515625 1.0625q0 0.5 -0.140625 1.15625l-0.34375 1.546875q-0.171875 0.734375 -0.171875 1.203125q0 0.296875 0.140625 0.84375l-1.078125 0q-0.09375 -0.3125 -0.125 -0.78125zm0.390625 -2.375q-0.21875 0.09375 -0.484375 0.140625q-0.25 0.046875 -0.84375 0.09375q-0.921875 0.078125 -1.3125 0.21875q-0.375 0.125 -0.578125 0.40625q-0.1875 0.265625 -0.1875 0.59375q0 0.453125 0.3125 0.734375q0.3125 0.28125 0.875 0.28125q0.53125 0 1.015625 -0.265625q0.484375 -0.28125 0.765625 -0.78125q0.28125 -0.5 0.4375 -1.421875zm2.0957031 3.15625l1.296875 -6.21875l0.9375 0l-0.265625 1.265625q0.484375 -0.71875 0.9375 -1.0625q0.46875 -0.34375 0.9375 -0.34375q0.328125 0 0.78125 0.21875l-0.4375 0.984375q-0.265625 -0.1875 -0.59375 -0.1875q-0.5625 0 -1.15625 0.625q-0.578125 0.609375 -0.90625 2.21875l-0.53125 2.5l-1.0 0zm3.9960938 0l1.796875 -8.59375l1.0625 0l-1.109375 5.328125l3.09375 -2.953125l1.390625 0l-2.65625 2.3125l1.609375 3.90625l-1.15625 0l-1.25 -3.1875l-1.28125 1.109375l-0.4375 2.078125l-1.0625 0zm11.818359 0l1.359375 -6.484375q-0.875 0.6875 -2.46875 1.109375l0.1875 -0.96875q0.796875 -0.3125 1.5625 -0.8125q0.78125 -0.515625 1.15625 -0.90625q0.234375 -0.234375 0.453125 -0.5625l0.609375 0l-1.796875 8.625l-1.0625 0zm5.783203 0l1.359375 -6.484375q-0.875 0.6875 -2.46875 1.109375l0.1875 -0.96875q0.796875 -0.3125 1.5625 -0.8125q0.78125 -0.515625 1.15625 -0.90625q0.234375 -0.234375 0.453125 -0.5625l0.609375 0l-1.796875 8.625l-1.0625 0z" fill-rule="nonzero"/><path fill="#cfe2f3" d="m387.1942 45.99475l100.28348 0l0 100.28346l-100.28348 0z" fill-rule="evenodd"/><path stroke="#000000" stroke-width="1.0" stroke-linejoin="round" stroke-linecap="butt" d="m387.1942 45.99475l100.28348 0l0 100.28346l-100.28348 0z" fill-rule="evenodd"/><path fill="#000000" d="m396.5067 76.67461q0 -1.34375 0.75 -1.984375q0.625 -0.546875 1.515625 -0.546875q1.0 0 1.625 0.65625q0.640625 0.65625 0.640625 1.8125q0 0.9375 -0.28125 1.46875q-0.28125 0.53125 -0.8125 0.828125q-0.53125 0.296875 -1.171875 0.296875q-1.015625 0 -1.640625 -0.640625q-0.625 -0.65625 -0.625 -1.890625zm0.84375 0q0 0.9375 0.40625 1.40625q0.40625 0.453125 1.015625 0.453125q0.609375 0 1.015625 -0.46875q0.40625 -0.46875 0.40625 -1.421875q0 -0.890625 -0.40625 -1.34375q-0.40625 -0.46875 -1.015625 -0.46875q-0.609375 0 -1.015625 0.46875q-0.40625 0.453125 -0.40625 1.375zm5.984741 2.421875l-1.828125 -4.84375l0.859375 0l1.03125 2.90625q0.171875 0.46875 0.3125 0.96875q0.109375 -0.375 0.3125 -0.921875l1.078125 -2.953125l0.84375 0l-1.84375 4.84375l-0.765625 0zm3.3203125 0l0 -4.84375l0.75 0l0 0.6875q0.53125 -0.796875 1.53125 -0.796875q0.4375 0 0.796875 0.171875q0.375 0.15625 0.546875 0.40625q0.1875 0.25 0.265625 0.609375q0.046875 0.21875 0.046875 0.796875l0 2.96875l-0.828125 0l0 -2.9375q0 -0.5 -0.09375 -0.75q-0.09375 -0.25 -0.34375 -0.390625q-0.234375 -0.15625 -0.5625 -0.15625q-0.515625 0 -0.90625 0.328125q-0.375 0.328125 -0.375 1.265625l0 2.640625l-0.828125 0zm4.875366 -2.0l0 -0.828125l2.515625 0l0 0.828125l-2.515625 0zm3.2782288 2.40625l0.796875 0.109375q0.046875 0.375 0.28125 0.546875q0.296875 0.21875 0.828125 0.21875q0.5625 0 0.875 -0.234375q0.3125 -0.21875 0.421875 -0.625q0.0625 -0.25 0.0625 -1.0625q-0.546875 0.640625 -1.34375 0.640625q-1.0 0 -1.546875 -0.71875q-0.546875 -0.71875 -0.546875 -1.734375q0 -0.6875 0.25 -1.265625q0.25 -0.59375 0.71875 -0.90625q0.484375 -0.328125 1.125 -0.328125q0.859375 0 1.421875 0.703125l0 -0.59375l0.75 0l0 4.1875q0 1.125 -0.234375 1.59375q-0.21875 0.484375 -0.71875 0.75q-0.5 0.28125 -1.234375 0.28125q-0.859375 0 -1.390625 -0.390625q-0.53125 -0.390625 -0.515625 -1.171875zm0.671875 -2.90625q0 0.953125 0.375 1.390625q0.390625 0.4375 0.953125 0.4375q0.5625 0 0.9375 -0.4375q0.390625 -0.4375 0.390625 -1.375q0 -0.875 -0.390625 -1.328125q-0.390625 -0.453125 -0.953125 -0.453125q-0.546875 0 -0.9375 0.453125q-0.375 0.4375 -0.375 1.3125zm7.812866 1.90625q-0.453125 0.390625 -0.875 0.546875q-0.421875 0.15625 -0.90625 0.15625q-0.796875 0 -1.21875 -0.390625q-0.421875 -0.390625 -0.421875 -1.0q0 -0.34375 0.15625 -0.640625q0.15625 -0.296875 0.421875 -0.46875q0.265625 -0.1875 0.59375 -0.28125q0.234375 -0.0625 0.71875 -0.109375q1.0 -0.125 1.46875 -0.28125q0 -0.171875 0 -0.21875q0 -0.5 -0.234375 -0.703125q-0.3125 -0.28125 -0.921875 -0.28125q-0.578125 0 -0.859375 0.203125q-0.28125 0.203125 -0.40625 0.71875l-0.796875 -0.109375q0.109375 -0.515625 0.359375 -0.828125q0.25 -0.328125 0.71875 -0.5q0.46875 -0.171875 1.09375 -0.171875q0.625 0 1.0 0.15625q0.390625 0.140625 0.578125 0.359375q0.1875 0.21875 0.25 0.5625q0.046875 0.203125 0.046875 0.75l0 1.09375q0 1.140625 0.046875 1.453125q0.0625 0.296875 0.21875 0.578125l-0.859375 0q-0.125 -0.25 -0.171875 -0.59375zm-0.0625 -1.828125q-0.453125 0.171875 -1.34375 0.296875q-0.5 0.078125 -0.71875 0.171875q-0.203125 0.09375 -0.3125 0.265625q-0.109375 0.171875 -0.109375 0.390625q0 0.328125 0.234375 0.546875q0.25 0.21875 0.734375 0.21875q0.46875 0 0.828125 -0.203125q0.375 -0.21875 0.5625 -0.578125q0.125 -0.265625 0.125 -0.8125l0 -0.296875zm3.8909912 1.6875l0.109375 0.71875q-0.34375 0.078125 -0.609375 0.078125q-0.453125 0 -0.703125 -0.140625q-0.234375 -0.140625 -0.34375 -0.359375q-0.09375 -0.234375 -0.09375 -0.984375l0 -2.78125l-0.609375 0l0 -0.640625l0.609375 0l0 -1.1875l0.8125 -0.5l0 1.6875l0.828125 0l0 0.640625l-0.828125 0l0 2.828125q0 0.359375 0.046875 0.46875q0.046875 0.09375 0.140625 0.15625q0.09375 0.046875 0.28125 0.046875q0.140625 0 0.359375 -0.03125zm4.1072693 -0.828125l0.84375 0.109375q-0.1875 0.75 -0.734375 1.15625q-0.546875 0.40625 -1.390625 0.40625q-1.0625 0 -1.6875 -0.65625q-0.609375 -0.65625 -0.609375 -1.828125q0 -1.21875 0.625 -1.890625q0.625 -0.6875 1.625 -0.6875q0.984375 0 1.59375 0.671875q0.609375 0.65625 0.609375 1.859375q0 0.0625 0 0.21875l-3.609375 0q0.046875 0.796875 0.453125 1.21875q0.40625 0.421875 1.015625 0.421875q0.453125 0 0.765625 -0.234375q0.3125 -0.234375 0.5 -0.765625zm-2.6875 -1.328125l2.703125 0q-0.0625 -0.609375 -0.3125 -0.90625q-0.390625 -0.46875 -1.015625 -0.46875q-0.5625 0 -0.953125 0.375q-0.375 0.375 -0.421875 1.0zm5.453491 2.890625l-1.46875 -4.84375l0.84375 0l0.765625 2.796875l0.296875 1.046875q0.015625 -0.078125 0.25 -1.0l0.765625 -2.84375l0.84375 0l0.71875 2.8125l0.25 0.921875l0.265625 -0.9375l0.828125 -2.796875l0.796875 0l-1.5 4.84375l-0.859375 0l-0.765625 -2.890625l-0.1875 -0.828125l-0.984375 3.71875l-0.859375 0zm9.002106 -0.59375q-0.453125 0.390625 -0.875 0.546875q-0.421875 0.15625 -0.90625 0.15625q-0.796875 0 -1.21875 -0.390625q-0.421875 -0.390625 -0.421875 -1.0q0 -0.34375 0.15625 -0.640625q0.15625 -0.296875 0.421875 -0.46875q0.265625 -0.1875 0.59375 -0.28125q0.234375 -0.0625 0.71875 -0.109375q1.0 -0.125 1.46875 -0.28125q0 -0.171875 0 -0.21875q0 -0.5 -0.234375 -0.703125q-0.3125 -0.28125 -0.921875 -0.28125q-0.578125 0 -0.859375 0.203125q-0.28125 0.203125 -0.40625 0.71875l-0.796875 -0.109375q0.109375 -0.515625 0.359375 -0.828125q0.25 -0.328125 0.71875 -0.5q0.46875 -0.171875 1.09375 -0.171875q0.625 0 1.0 0.15625q0.390625 0.140625 0.578125 0.359375q0.1875 0.21875 0.25 0.5625q0.046875 0.203125 0.046875 0.75l0 1.09375q0 1.140625 0.046875 1.453125q0.0625 0.296875 0.21875 0.578125l-0.859375 0q-0.125 -0.25 -0.171875 -0.59375zm-0.0625 -1.828125q-0.453125 0.171875 -1.34375 0.296875q-0.5 0.078125 -0.71875 0.171875q-0.203125 0.09375 -0.3125 0.265625q-0.109375 0.171875 -0.109375 0.390625q0 0.328125 0.234375 0.546875q0.25 0.21875 0.734375 0.21875q0.46875 0 0.828125 -0.203125q0.375 -0.21875 0.5625 -0.578125q0.125 -0.265625 0.125 -0.8125l0 -0.296875zm2.0628662 4.28125l-0.09375 -0.765625q0.265625 0.078125 0.46875 0.078125q0.28125 0 0.4375 -0.09375q0.171875 -0.09375 0.265625 -0.265625q0.078125 -0.109375 0.25 -0.609375q0.03125 -0.0625 0.078125 -0.1875l-1.828125 -4.859375l0.875 0l1.015625 2.8125q0.1875 0.53125 0.34375 1.109375q0.140625 -0.5625 0.34375 -1.09375l1.03125 -2.828125l0.8125 0l-1.84375 4.921875q-0.28125 0.796875 -0.453125 1.09375q-0.21875 0.40625 -0.5 0.59375q-0.28125 0.203125 -0.671875 0.203125q-0.234375 0 -0.53125 -0.109375zm4.3828125 -3.859375l0 -0.828125l2.515625 0l0 0.828125l-2.515625 0zm3.4188538 2.0l0 -4.84375l0.734375 0l0 0.734375q0.28125 -0.515625 0.515625 -0.671875q0.25 -0.171875 0.53125 -0.171875q0.421875 0 0.84375 0.265625l-0.28125 0.765625q-0.296875 -0.171875 -0.609375 -0.171875q-0.265625 0 -0.484375 0.15625q-0.203125 0.15625 -0.296875 0.453125q-0.140625 0.4375 -0.140625 0.953125l0 2.53125l-0.8125 0zm2.8094482 -2.421875q0 -1.34375 0.75 -1.984375q0.625 -0.546875 1.515625 -0.546875q1.0 0 1.625 0.65625q0.640625 0.65625 0.640625 1.8125q0 0.9375 -0.28125 1.46875q-0.28125 0.53125 -0.8125 0.828125q-0.53125 0.296875 -1.171875 0.296875q-1.015625 0 -1.640625 -0.640625q-0.625 -0.65625 -0.625 -1.890625zm0.84375 0q0 0.9375 0.40625 1.40625q0.40625 0.453125 1.015625 0.453125q0.609375 0 1.015625 -0.46875q0.40625 -0.46875 0.40625 -1.421875q0 -0.890625 -0.40625 -1.34375q-0.40625 -0.46875 -1.015625 -0.46875q-0.609375 0 -1.015625 0.46875q-0.40625 0.453125 -0.40625 1.375zm7.812866 2.421875l0 -0.703125q-0.5625 0.8125 -1.53125 0.8125q-0.421875 0 -0.796875 -0.15625q-0.375 -0.171875 -0.5625 -0.421875q-0.171875 -0.25 -0.25 -0.609375q-0.046875 -0.234375 -0.046875 -0.765625l0 -3.0l0.828125 0l0 2.6875q0 0.640625 0.046875 0.875q0.078125 0.3125 0.328125 0.5q0.25 0.1875 0.609375 0.1875q0.375 0 0.703125 -0.1875q0.328125 -0.1875 0.453125 -0.515625q0.140625 -0.328125 0.140625 -0.953125l0 -2.59375l0.8125 0l0 4.84375l-0.734375 0zm3.8128662 -0.734375l0.109375 0.71875q-0.34375 0.078125 -0.609375 0.078125q-0.453125 0 -0.703125 -0.140625q-0.234375 -0.140625 -0.34375 -0.359375q-0.09375 -0.234375 -0.09375 -0.984375l0 -2.78125l-0.609375 0l0 -0.640625l0.609375 0l0 -1.1875l0.8125 -0.5l0 1.6875l0.828125 0l0 0.640625l-0.828125 0l0 2.828125q0 0.359375 0.046875 0.46875q0.046875 0.09375 0.140625 0.15625q0.09375 0.046875 0.28125 0.046875q0.140625 0 0.359375 -0.03125zm4.1073 -0.828125l0.84375 0.109375q-0.1875 0.75 -0.734375 1.15625q-0.546875 0.40625 -1.390625 0.40625q-1.0625 0 -1.6875 -0.65625q-0.609375 -0.65625 -0.609375 -1.828125q0 -1.21875 0.625 -1.890625q0.625 -0.6875 1.625 -0.6875q0.984375 0 1.59375 0.671875q0.609375 0.65625 0.609375 1.859375q0 0.0625 0 0.21875l-3.609375 0q0.046875 0.796875 0.453125 1.21875q0.40625 0.421875 1.015625 0.421875q0.453125 0 0.765625 -0.234375q0.3125 -0.234375 0.5 -0.765625zm-2.6875 -1.328125l2.703125 0q-0.0625 -0.609375 -0.3125 -0.90625q-0.390625 -0.46875 -1.015625 -0.46875q-0.5625 0 -0.953125 0.375q-0.375 0.375 -0.421875 1.0zm4.562866 2.890625l0 -4.84375l0.734375 0l0 0.734375q0.28125 -0.515625 0.515625 -0.671875q0.25 -0.171875 0.53125 -0.171875q0.421875 0 0.84375 0.265625l-0.28125 0.765625q-0.296875 -0.171875 -0.609375 -0.171875q-0.265625 0 -0.484375 0.15625q-0.203125 0.15625 -0.296875 0.453125q-0.140625 0.4375 -0.140625 0.953125l0 2.53125l-0.8125 0z" fill-rule="nonzero"/><path fill="#000000" d="m425.48642 88.923355l0.953125 -0.078125q0.0625 0.5625 0.3125 0.9375q0.25 0.359375 0.765625 0.59375q0.515625 0.21875 1.171875 0.21875q0.578125 0 1.015625 -0.171875q0.4375 -0.171875 0.65625 -0.46875q0.21875 -0.296875 0.21875 -0.65625q0 -0.359375 -0.21875 -0.625q-0.203125 -0.265625 -0.671875 -0.4375q-0.3125 -0.125 -1.359375 -0.375q-1.046875 -0.25 -1.46875 -0.484375q-0.546875 -0.28125 -0.828125 -0.703125q-0.265625 -0.421875 -0.265625 -0.953125q0 -0.578125 0.328125 -1.078125q0.328125 -0.5 0.953125 -0.765625q0.640625 -0.265625 1.40625 -0.265625q0.84375 0 1.484375 0.28125q0.65625 0.265625 1.0 0.796875q0.359375 0.53125 0.390625 1.203125l-0.96875 0.078125q-0.078125 -0.71875 -0.53125 -1.09375q-0.453125 -0.375 -1.328125 -0.375q-0.921875 0 -1.34375 0.34375q-0.40625 0.328125 -0.40625 0.8125q0 0.40625 0.296875 0.671875q0.28125 0.265625 1.515625 0.546875q1.234375 0.28125 1.6875 0.484375q0.671875 0.3125 0.984375 0.78125q0.3125 0.46875 0.3125 1.078125q0 0.609375 -0.34375 1.15625q-0.34375 0.53125 -1.0 0.828125q-0.65625 0.296875 -1.46875 0.296875q-1.046875 0 -1.75 -0.296875q-0.6875 -0.296875 -1.09375 -0.90625q-0.390625 -0.609375 -0.40625 -1.375zm7.4357605 2.453125l0 -7.625l1.03125 0l4.015625 5.984375l0 -5.984375l0.96875 0l0 7.625l-1.046875 0l-4.0 -6.0l0 6.0l-0.96875 0zm6.8674927 0l2.921875 -7.625l1.09375 0l3.125 7.625l-1.15625 0l-0.890625 -2.3125l-3.1875 0l-0.828125 2.3125l-1.078125 0zm2.203125 -3.125l2.578125 0l-0.796875 -2.125q-0.359375 -0.953125 -0.53125 -1.578125q-0.15625 0.734375 -0.421875 1.453125l-0.828125 2.25zm6.8940735 3.125l0 -6.734375l-2.515625 0l0 -0.890625l6.046875 0l0 0.890625l-2.53125 0l0 6.734375l-1.0 0z" fill-rule="nonzero"/><path fill="#000000" d="m435.20706 104.797104l-0.171875 0.859375q-0.375 0.109375 -0.734375 0.109375q-0.640625 0 -1.015625 -0.3125q-0.28125 -0.234375 -0.28125 -0.640625q0 -0.203125 0.15625 -0.9375l0.75 -3.625l-0.828125 0l0.171875 -0.8125l0.828125 0l0.328125 -1.53125l1.203125 -0.734375l-0.46875 2.265625l1.046875 0l-0.171875 0.8125l-1.046875 0l-0.71875 3.4375q-0.140625 0.65625 -0.140625 0.796875q0 0.1875 0.109375 0.28125q0.109375 0.09375 0.359375 0.09375q0.359375 0 0.625 -0.0625zm1.0527344 -1.5q0 -1.828125 1.0625 -3.015625q0.890625 -0.984375 2.328125 -0.984375q1.125 0 1.8125 0.703125q0.6875 0.703125 0.6875 1.890625q0 1.078125 -0.4375 2.0q-0.4375 0.921875 -1.234375 1.421875q-0.796875 0.484375 -1.6875 0.484375q-0.71875 0 -1.3125 -0.3125q-0.59375 -0.3125 -0.90625 -0.875q-0.3125 -0.578125 -0.3125 -1.3125zm1.046875 -0.109375q0 0.875 0.421875 1.328125q0.421875 0.453125 1.078125 0.453125q0.34375 0 0.671875 -0.125q0.34375 -0.140625 0.625 -0.421875q0.28125 -0.28125 0.484375 -0.640625q0.203125 -0.359375 0.328125 -0.78125q0.1875 -0.578125 0.1875 -1.109375q0 -0.84375 -0.4375 -1.3125q-0.421875 -0.46875 -1.0625 -0.46875q-0.5 0 -0.90625 0.25q-0.40625 0.234375 -0.75 0.6875q-0.328125 0.453125 -0.484375 1.0625q-0.15625 0.609375 -0.15625 1.078125z" fill-rule="nonzero"/><path fill="#000000" d="m401.85648 119.65648l1.359375 -6.484375q-0.875 0.6875 -2.46875 1.109375l0.1875 -0.96875q0.796875 -0.3125 1.5625 -0.8125q0.78125 -0.515625 1.15625 -0.90625q0.234375 -0.234375 0.453125 -0.5625l0.609375 0l-1.796875 8.625l-1.0625 0zm6.205078 -4.984375q0.4375 -0.359375 0.875 -0.546875q0.453125 -0.1875 0.875 -0.1875q0.984375 0 1.625 0.671875q0.640625 0.65625 0.640625 1.796875q0 1.453125 -0.953125 2.5q-0.8125 0.890625 -1.984375 0.890625q-1.078125 0 -1.796875 -0.78125q-0.703125 -0.78125 -0.703125 -2.21875q0 -1.296875 0.453125 -2.6875q0.359375 -1.0625 0.875 -1.75q0.515625 -0.6875 1.09375 -1.0q0.59375 -0.328125 1.328125 -0.328125q0.875 0 1.421875 0.546875q0.5625 0.546875 0.640625 1.5625l-0.984375 0.09375q-0.078125 -0.6875 -0.390625 -1.0q-0.3125 -0.3125 -0.765625 -0.3125q-0.46875 0 -0.953125 0.375q-0.484375 0.359375 -0.828125 1.09375q-0.34375 0.71875 -0.46875 1.28125zm-0.375 2.5625q0 0.734375 0.453125 1.234375q0.453125 0.484375 1.015625 0.484375q0.40625 0 0.84375 -0.296875q0.453125 -0.296875 0.75 -0.90625q0.3125 -0.625 0.3125 -1.234375q0 -0.78125 -0.4375 -1.25q-0.421875 -0.484375 -1.03125 -0.484375q-0.703125 0 -1.3125 0.6875q-0.59375 0.6875 -0.59375 1.765625zm5.439453 0.453125l1.0 -0.09375q0.09375 0.71875 0.40625 1.03125q0.3125 0.296875 0.734375 0.296875q0.609375 0 1.125 -0.53125q0.78125 -0.78125 1.140625 -2.21875q-0.53125 0.390625 -0.953125 0.5625q-0.40625 0.171875 -0.84375 0.171875q-0.78125 0 -1.40625 -0.53125q-0.8125 -0.6875 -0.8125 -1.96875q0 -1.453125 0.9375 -2.484375q0.8125 -0.890625 2.0 -0.890625q1.0625 0 1.765625 0.796875q0.703125 0.78125 0.703125 2.21875q0 1.40625 -0.46875 2.765625q-0.546875 1.609375 -1.5 2.375q-0.765625 0.609375 -1.734375 0.609375q-0.890625 0 -1.46875 -0.546875q-0.5625 -0.5625 -0.625 -1.5625zm1.40625 -3.40625q0 0.8125 0.421875 1.296875q0.4375 0.484375 1.03125 0.484375q0.4375 0 0.875 -0.296875q0.4375 -0.3125 0.75 -0.90625q0.3125 -0.59375 0.3125 -1.21875q0 -0.484375 -0.21875 -0.90625q-0.203125 -0.421875 -0.5625 -0.640625q-0.34375 -0.21875 -0.703125 -0.21875q-0.359375 0 -0.703125 0.1875q-0.328125 0.1875 -0.625 0.5625q-0.28125 0.359375 -0.4375 0.828125q-0.140625 0.46875 -0.140625 0.828125zm5.142578 5.375l0.25 -1.203125l1.203125 0l-0.25 1.203125l-1.203125 0zm3.3496094 0q0.171875 -0.765625 0.453125 -1.28125q0.296875 -0.53125 0.765625 -0.984375q0.484375 -0.46875 1.859375 -1.5625q0.828125 -0.671875 1.140625 -0.984375q0.4375 -0.453125 0.640625 -0.890625q0.125 -0.296875 0.125 -0.65625q0 -0.59375 -0.421875 -1.0q-0.40625 -0.421875 -1.015625 -0.421875q-0.609375 0 -1.0625 0.421875q-0.453125 0.421875 -0.640625 1.34375l-1.046875 -0.15625q0.15625 -1.140625 0.890625 -1.796875q0.734375 -0.65625 1.828125 -0.65625q0.734375 0 1.328125 0.3125q0.59375 0.296875 0.890625 0.84375q0.3125 0.546875 0.3125 1.140625q0 0.859375 -0.609375 1.640625q-0.375 0.5 -2.203125 1.9375q-0.796875 0.625 -1.1875 1.03125q-0.375 0.390625 -0.5625 0.75l3.84375 0l-0.203125 0.96875l-5.125 0zm6.814453 -2.453125l1.078125 -0.109375q-0.015625 0.234375 -0.015625 0.28125q0 0.375 0.1875 0.78125q0.203125 0.390625 0.53125 0.59375q0.34375 0.203125 0.71875 0.203125q0.5 0 1.0 -0.328125q0.515625 -0.34375 0.828125 -0.984375q0.3125 -0.65625 0.3125 -1.296875q0 -0.71875 -0.421875 -1.15625q-0.421875 -0.4375 -1.109375 -0.4375q-0.46875 0 -0.890625 0.234375q-0.40625 0.21875 -0.765625 0.65625l-0.921875 -0.0625l1.296875 -4.390625l4.203125 0l-0.21875 0.96875l-3.25 0l-0.65625 2.1875q0.375 -0.265625 0.75 -0.390625q0.390625 -0.140625 0.796875 -0.140625q0.984375 0 1.609375 0.65625q0.640625 0.640625 0.640625 1.78125q0 0.984375 -0.4375 1.828125q-0.4375 0.828125 -1.203125 1.28125q-0.75 0.4375 -1.625 0.4375q-0.75 0 -1.3125 -0.328125q-0.5625 -0.328125 -0.859375 -0.90625q-0.28125 -0.59375 -0.28125 -1.1875q0 -0.0625 0.015625 -0.171875zm9.423828 2.453125l0.453125 -2.1875l-3.5 0l0.21875 -1.046875l4.8125 -5.359375l0.875 0l-1.15625 5.46875l1.21875 0l-0.203125 0.9375l-1.203125 0l-0.46875 2.1875l-1.046875 0zm0.65625 -3.125l0.75 -3.59375l-3.203125 3.59375l2.453125 0zm3.1113281 3.125l0.25 -1.203125l1.203125 0l-0.25 1.203125l-1.203125 0zm5.5371094 0l1.359375 -6.484375q-0.875 0.6875 -2.46875 1.109375l0.1875 -0.96875q0.796875 -0.3125 1.5625 -0.8125q0.78125 -0.515625 1.15625 -0.90625q0.234375 -0.234375 0.453125 -0.5625l0.609375 0l-1.796875 8.625l-1.0625 0zm6.205078 -4.984375q0.4375 -0.359375 0.875 -0.546875q0.453125 -0.1875 0.875 -0.1875q0.984375 0 1.625 0.671875q0.640625 0.65625 0.640625 1.796875q0 1.453125 -0.953125 2.5q-0.8125 0.890625 -1.984375 0.890625q-1.078125 0 -1.796875 -0.78125q-0.703125 -0.78125 -0.703125 -2.21875q0 -1.296875 0.453125 -2.6875q0.359375 -1.0625 0.875 -1.75q0.515625 -0.6875 1.09375 -1.0q0.59375 -0.328125 1.328125 -0.328125q0.875 0 1.421875 0.546875q0.5625 0.546875 0.640625 1.5625l-0.984375 0.09375q-0.078125 -0.6875 -0.390625 -1.0q-0.3125 -0.3125 -0.765625 -0.3125q-0.46875 0 -0.953125 0.375q-0.484375 0.359375 -0.828125 1.09375q-0.34375 0.71875 -0.46875 1.28125zm-0.375 2.5625q0 0.734375 0.453125 1.234375q0.453125 0.484375 1.015625 0.484375q0.40625 0 0.84375 -0.296875q0.453125 -0.296875 0.75 -0.90625q0.3125 -0.625 0.3125 -1.234375q0 -0.78125 -0.4375 -1.25q-0.421875 -0.484375 -1.03125 -0.484375q-0.703125 0 -1.3125 0.6875q-0.59375 0.6875 -0.59375 1.765625zm5.439453 0.453125l1.0 -0.09375q0.09375 0.71875 0.40625 1.03125q0.3125 0.296875 0.734375 0.296875q0.609375 0 1.125 -0.53125q0.78125 -0.78125 1.140625 -2.21875q-0.53125 0.390625 -0.953125 0.5625q-0.40625 0.171875 -0.84375 0.171875q-0.78125 0 -1.40625 -0.53125q-0.8125 -0.6875 -0.8125 -1.96875q0 -1.453125 0.9375 -2.484375q0.8125 -0.890625 2.0 -0.890625q1.0625 0 1.765625 0.796875q0.703125 0.78125 0.703125 2.21875q0 1.40625 -0.46875 2.765625q-0.546875 1.609375 -1.5 2.375q-0.765625 0.609375 -1.734375 0.609375q-0.890625 0 -1.46875 -0.546875q-0.5625 -0.5625 -0.625 -1.5625zm1.40625 -3.40625q0 0.8125 0.421875 1.296875q0.4375 0.484375 1.03125 0.484375q0.4375 0 0.875 -0.296875q0.4375 -0.3125 0.75 -0.90625q0.3125 -0.59375 0.3125 -1.21875q0 -0.484375 -0.21875 -0.90625q-0.203125 -0.421875 -0.5625 -0.640625q-0.34375 -0.21875 -0.703125 -0.21875q-0.359375 0 -0.703125 0.1875q-0.328125 0.1875 -0.625 0.5625q-0.28125 0.359375 -0.4375 0.828125q-0.140625 0.46875 -0.140625 0.828125zm5.142578 5.375l0.25 -1.203125l1.203125 0l-0.25 1.203125l-1.203125 0zm3.4902344 -2.453125l1.078125 -0.109375q-0.015625 0.234375 -0.015625 0.28125q0 0.375 0.1875 0.78125q0.203125 0.390625 0.53125 0.59375q0.34375 0.203125 0.71875 0.203125q0.5 0 1.0 -0.328125q0.515625 -0.34375 0.828125 -0.984375q0.3125 -0.65625 0.3125 -1.296875q0 -0.71875 -0.421875 -1.15625q-0.421875 -0.4375 -1.109375 -0.4375q-0.46875 0 -0.890625 0.234375q-0.40625 0.21875 -0.765625 0.65625l-0.921875 -0.0625l1.296875 -4.390625l4.203125 0l-0.21875 0.96875l-3.25 0l-0.65625 2.1875q0.375 -0.265625 0.75 -0.390625q0.390625 -0.140625 0.796875 -0.140625q0.984375 0 1.609375 0.65625q0.640625 0.640625 0.640625 1.78125q0 0.984375 -0.4375 1.828125q-0.4375 0.828125 -1.203125 1.28125q-0.75 0.4375 -1.625 0.4375q-0.75 0 -1.3125 -0.328125q-0.5625 -0.328125 -0.859375 -0.90625q-0.28125 -0.59375 -0.28125 -1.1875q0 -0.0625 0.015625 -0.171875z" fill-rule="nonzero"/><path fill="#000000" fill-opacity="0.0" d="m119.698166 90.91338l87.779526 0" fill-rule="evenodd"/><path stroke="#000000" stroke-width="1.0" stroke-linejoin="round" stroke-linecap="butt" d="m119.698166 90.91338l81.779526 0" fill-rule="evenodd"/><path fill="#000000" stroke="#000000" stroke-width="1.0" stroke-linecap="butt" d="m201.47769 92.56512l4.538101 -1.6517334l-4.538101 -1.6517334z" fill-rule="evenodd"/><path fill="#000000" fill-opacity="0.0" d="m345.2362 91.944885l41.95276 2.8031464" fill-rule="evenodd"/><path stroke="#000000" stroke-width="1.0" stroke-linejoin="round" stroke-linecap="butt" d="m345.2362 91.944885l35.966125 2.4031372" fill-rule="evenodd"/><path fill="#000000" stroke="#000000" stroke-width="1.0" stroke-linecap="butt" d="m381.0922 95.99608l4.6381226 -1.3455124l-4.417877 -1.9505997z" fill-rule="evenodd"/><path fill="#000000" fill-opacity="0.0" d="m487.4777 96.13648l35.149628 -0.8503952" fill-rule="evenodd"/><path stroke="#000000" stroke-width="1.0" stroke-linejoin="round" stroke-linecap="butt" d="m487.4777 96.13648l29.151398 -0.7052765" fill-rule="evenodd"/><path fill="#000000" stroke="#000000" stroke-width="1.0" stroke-linecap="butt" d="m516.669 97.08246l4.496826 -1.7610092l-4.576721 -1.5414886z" fill-rule="evenodd"/><path fill="#cfe2f3" d="m524.0341 75.12861l276.66144 0l0 77.57481l-276.66144 0z" fill-rule="evenodd"/><path fill="#000000" d="m534.98724 102.04861l-1.078125 0l0 -9.546875l1.171875 0l0 3.40625q0.734375 -0.921875 1.890625 -0.921875q0.640625 0 1.203125 0.265625q0.578125 0.25 0.9375 0.71875q0.375 0.453125 0.578125 1.109375q0.203125 0.65625 0.203125 1.40625q0 1.78125 -0.875 2.75q-0.875 0.96875 -2.109375 0.96875q-1.21875 0 -1.921875 -1.015625l0 0.859375zm0 -3.5q0 1.234375 0.328125 1.78125q0.5625 0.90625 1.5 0.90625q0.765625 0 1.328125 -0.65625q0.5625 -0.671875 0.5625 -2.0q0 -1.34375 -0.546875 -1.984375q-0.53125 -0.65625 -1.296875 -0.65625q-0.765625 0 -1.328125 0.671875q-0.546875 0.671875 -0.546875 1.9375zm6.3187256 3.5l0 -6.90625l1.0625 0l0 1.046875q0.40625 -0.734375 0.734375 -0.96875q0.34375 -0.234375 0.765625 -0.234375q0.59375 0 1.203125 0.375l-0.40625 1.078125q-0.4375 -0.25 -0.859375 -0.25q-0.390625 0 -0.703125 0.234375q-0.296875 0.234375 -0.421875 0.640625q-0.203125 0.625 -0.203125 1.359375l0 3.625l-1.171875 0zm4.0008545 -2.859375l0 -1.1875l3.59375 0l0 1.1875l-3.59375 0zm9.625916 0.640625l1.203125 0.140625q-0.28125 1.0625 -1.0625 1.65625q-0.765625 0.578125 -1.96875 0.578125q-1.515625 0 -2.40625 -0.9375q-0.890625 -0.9375 -0.890625 -2.609375q0 -1.75 0.890625 -2.703125q0.90625 -0.96875 2.34375 -0.96875q1.390625 0 2.265625 0.9375q0.875 0.9375 0.875 2.65625q0 0.109375 0 0.3125l-5.15625 0q0.0625 1.140625 0.640625 1.75q0.578125 0.59375 1.4375 0.59375q0.65625 0 1.109375 -0.328125q0.453125 -0.34375 0.71875 -1.078125zm-3.84375 -1.90625l3.859375 0q-0.078125 -0.859375 -0.4375 -1.296875q-0.5625 -0.6875 -1.453125 -0.6875q-0.8125 0 -1.359375 0.546875q-0.546875 0.53125 -0.609375 1.4375zm5.7406006 4.125l2.53125 -3.59375l-2.34375 -3.3125l1.46875 0l1.0625 1.609375q0.296875 0.46875 0.484375 0.78125q0.28125 -0.4375 0.515625 -0.765625l1.171875 -1.625l1.40625 0l-2.390625 3.25l2.5625 3.65625l-1.4375 0l-1.421875 -2.140625l-0.375 -0.59375l-1.8125 2.734375l-1.421875 0z" fill-rule="nonzero"/><path fill="#000000" d="m571.0832 104.29861q-0.78125 -0.984375 -1.328125 -2.296875q-0.53125 -1.3125 -0.53125 -2.71875q0 -1.234375 0.40625 -2.375q0.46875 -1.3125 1.453125 -2.625l0.65625 0q-0.625 1.09375 -0.828125 1.546875q-0.3125 0.71875 -0.5 1.5q-0.21875 0.984375 -0.21875 1.96875q0 2.5 1.546875 5.0l-0.65625 0zm3.814209 -2.25l0 -6.734375l-2.515625 0l0 -0.890625l6.046875 0l0 0.890625l-2.53125 0l0 6.734375l-1.0 0zm6.8738403 -0.6875q-0.53125 0.453125 -1.015625 0.640625q-0.46875 0.171875 -1.015625 0.171875q-0.921875 0 -1.40625 -0.4375q-0.484375 -0.453125 -0.484375 -1.140625q0 -0.40625 0.171875 -0.734375q0.1875 -0.34375 0.484375 -0.546875q0.3125 -0.203125 0.6875 -0.3125q0.265625 -0.0625 0.828125 -0.140625q1.125 -0.125 1.671875 -0.3125q0 -0.203125 0 -0.25q0 -0.578125 -0.265625 -0.8125q-0.359375 -0.3125 -1.0625 -0.3125q-0.65625 0 -0.984375 0.234375q-0.3125 0.234375 -0.453125 0.8125l-0.921875 -0.125q0.125 -0.578125 0.40625 -0.9375q0.296875 -0.375 0.828125 -0.5625q0.546875 -0.203125 1.25 -0.203125q0.71875 0 1.15625 0.171875q0.4375 0.171875 0.640625 0.421875q0.21875 0.25 0.296875 0.640625q0.046875 0.234375 0.046875 0.859375l0 1.25q0 1.296875 0.0625 1.65625q0.0625 0.34375 0.234375 0.65625l-0.96875 0q-0.15625 -0.296875 -0.1875 -0.6875zm-0.078125 -2.078125q-0.515625 0.203125 -1.53125 0.34375q-0.578125 0.078125 -0.828125 0.1875q-0.234375 0.109375 -0.359375 0.3125q-0.125 0.1875 -0.125 0.4375q0 0.375 0.28125 0.625q0.28125 0.25 0.828125 0.25q0.53125 0 0.953125 -0.234375q0.421875 -0.234375 0.625 -0.65625q0.15625 -0.3125 0.15625 -0.9375l0 -0.328125zm3.2546387 2.765625l-0.859375 0l0 -7.625l0.9375 0l0 2.71875q0.59375 -0.75 1.5 -0.75q0.515625 0 0.96875 0.21875q0.453125 0.203125 0.75 0.578125q0.296875 0.359375 0.453125 0.890625q0.171875 0.53125 0.171875 1.125q0 1.421875 -0.703125 2.203125q-0.703125 0.765625 -1.6875 0.765625q-0.96875 0 -1.53125 -0.8125l0 0.6875zm0 -2.796875q0 0.984375 0.265625 1.421875q0.4375 0.734375 1.1875 0.734375q0.625 0 1.0625 -0.53125q0.453125 -0.546875 0.453125 -1.59375q0 -1.078125 -0.4375 -1.59375q-0.421875 -0.515625 -1.03125 -0.515625q-0.609375 0 -1.0625 0.53125q-0.4375 0.53125 -0.4375 1.546875zm5.0515137 2.796875l0 -7.625l0.9375 0l0 7.625l-0.9375 0zm6.1643677 -1.78125l0.96875 0.125q-0.234375 0.84375 -0.859375 1.3125q-0.609375 0.46875 -1.578125 0.46875q-1.203125 0 -1.921875 -0.75q-0.703125 -0.75 -0.703125 -2.09375q0 -1.390625 0.71875 -2.15625q0.71875 -0.78125 1.859375 -0.78125q1.109375 0 1.8125 0.765625q0.703125 0.75 0.703125 2.125q0 0.078125 0 0.234375l-4.125 0q0.046875 0.921875 0.515625 1.40625q0.46875 0.484375 1.15625 0.484375q0.515625 0 0.875 -0.265625q0.359375 -0.28125 0.578125 -0.875zm-3.078125 -1.515625l3.09375 0q-0.0625 -0.6875 -0.359375 -1.046875q-0.453125 -0.53125 -1.15625 -0.53125q-0.640625 0 -1.09375 0.4375q-0.4375 0.421875 -0.484375 1.140625zm5.4889526 -1.15625l0 -1.078125l1.0625 0l0 1.078125l-1.0625 0zm0 4.453125l0 -1.0625l1.0625 0l0 1.0625l-1.0625 0zm2.4294434 -3.765625q0 -1.34375 0.28125 -2.171875q0.28125 -0.828125 0.828125 -1.265625q0.546875 -0.453125 1.375 -0.453125q0.625 0 1.078125 0.25q0.46875 0.234375 0.765625 0.703125q0.3125 0.46875 0.484375 1.140625q0.171875 0.671875 0.171875 1.796875q0 1.34375 -0.28125 2.171875q-0.28125 0.828125 -0.828125 1.28125q-0.546875 0.4375 -1.390625 0.4375q-1.09375 0 -1.71875 -0.78125q-0.765625 -0.953125 -0.765625 -3.109375zm0.96875 0q0 1.875 0.4375 2.5q0.4375 0.625 1.078125 0.625q0.65625 0 1.09375 -0.625q0.4375 -0.625 0.4375 -2.5q0 -1.875 -0.4375 -2.5q-0.4375 -0.625 -1.09375 -0.625q-0.640625 0 -1.03125 0.546875q-0.484375 0.703125 -0.484375 2.578125zm5.4733276 3.765625l0 -1.0625l1.0625 0l0 1.0625q0 0.59375 -0.21875 0.953125q-0.203125 0.359375 -0.65625 0.5625l-0.25 -0.40625q0.296875 -0.125 0.4375 -0.390625q0.140625 -0.25 0.15625 -0.71875l-0.53125 0zm5.6713257 2.125l0 -7.65625l0.859375 0l0 0.71875q0.296875 -0.421875 0.671875 -0.625q0.390625 -0.21875 0.921875 -0.21875q0.703125 0 1.25 0.375q0.546875 0.359375 0.8125 1.03125q0.28125 0.65625 0.28125 1.453125q0 0.84375 -0.3125 1.53125q-0.296875 0.671875 -0.875 1.03125q-0.578125 0.359375 -1.21875 0.359375q-0.46875 0 -0.84375 -0.1875q-0.375 -0.203125 -0.609375 -0.515625l0 2.703125l-0.9375 0zm0.84375 -4.859375q0 1.0625 0.4375 1.578125q0.4375 0.515625 1.046875 0.515625q0.625 0 1.0625 -0.53125q0.453125 -0.53125 0.453125 -1.640625q0 -1.046875 -0.4375 -1.578125q-0.4375 -0.53125 -1.046875 -0.53125q-0.59375 0 -1.0625 0.5625q-0.453125 0.5625 -0.453125 1.625zm5.0827637 2.734375l0 -7.625l0.9375 0l0 4.34375l2.21875 -2.25l1.21875 0l-2.125 2.0625l2.328125 3.46875l-1.15625 0l-1.8125 -2.828125l-0.671875 0.640625l0 2.1875l-0.9375 0zm7.375 -0.84375l0.125 0.828125q-0.390625 0.09375 -0.703125 0.09375q-0.5 0 -0.78125 -0.15625q-0.28125 -0.171875 -0.40625 -0.4375q-0.109375 -0.265625 -0.109375 -1.109375l0 -3.171875l-0.6875 0l0 -0.734375l0.6875 0l0 -1.359375l0.9375 -0.5625l0 1.921875l0.9375 0l0 0.734375l-0.9375 0l0 3.234375q0 0.390625 0.046875 0.515625q0.046875 0.109375 0.15625 0.1875q0.109375 0.0625 0.328125 0.0625q0.15625 0 0.40625 -0.046875zm0.054382324 2.96875l0 -0.6875l6.203125 0l0 0.6875l-6.203125 0zm6.7858887 -2.125l0 -5.53125l0.84375 0l0 0.78125q0.25 -0.40625 0.6875 -0.65625q0.4375 -0.25 0.984375 -0.25q0.609375 0 1.0 0.265625q0.390625 0.25 0.5625 0.703125q0.65625 -0.96875 1.703125 -0.96875q0.828125 0 1.265625 0.46875q0.4375 0.453125 0.4375 1.390625l0 3.796875l-0.921875 0l0 -3.484375q0 -0.5625 -0.09375 -0.796875q-0.09375 -0.25 -0.34375 -0.40625q-0.234375 -0.15625 -0.546875 -0.15625q-0.59375 0 -0.984375 0.390625q-0.375 0.390625 -0.375 1.25l0 3.203125l-0.9375 0l0 -3.59375q0 -0.625 -0.234375 -0.9375q-0.21875 -0.3125 -0.75 -0.3125q-0.390625 0 -0.734375 0.21875q-0.328125 0.203125 -0.484375 0.609375q-0.140625 0.390625 -0.140625 1.15625l0 2.859375l-0.9375 0zm12.486084 -0.6875q-0.53125 0.453125 -1.015625 0.640625q-0.46875 0.171875 -1.015625 0.171875q-0.921875 0 -1.40625 -0.4375q-0.484375 -0.453125 -0.484375 -1.140625q0 -0.40625 0.171875 -0.734375q0.1875 -0.34375 0.484375 -0.546875q0.3125 -0.203125 0.6875 -0.3125q0.265625 -0.0625 0.828125 -0.140625q1.125 -0.125 1.671875 -0.3125q0 -0.203125 0 -0.25q0 -0.578125 -0.265625 -0.8125q-0.359375 -0.3125 -1.0625 -0.3125q-0.65625 0 -0.984375 0.234375q-0.3125 0.234375 -0.453125 0.8125l-0.921875 -0.125q0.125 -0.578125 0.40625 -0.9375q0.296875 -0.375 0.828125 -0.5625q0.546875 -0.203125 1.25 -0.203125q0.71875 0 1.15625 0.171875q0.4375 0.171875 0.640625 0.421875q0.21875 0.25 0.296875 0.640625q0.046875 0.234375 0.046875 0.859375l0 1.25q0 1.296875 0.0625 1.65625q0.0625 0.34375 0.234375 0.65625l-0.96875 0q-0.15625 -0.296875 -0.1875 -0.6875zm-0.078125 -2.078125q-0.515625 0.203125 -1.53125 0.34375q-0.578125 0.078125 -0.828125 0.1875q-0.234375 0.109375 -0.359375 0.3125q-0.125 0.1875 -0.125 0.4375q0 0.375 0.28125 0.625q0.28125 0.25 0.828125 0.25q0.53125 0 0.953125 -0.234375q0.421875 -0.234375 0.625 -0.65625q0.15625 -0.3125 0.15625 -0.9375l0 -0.328125zm2.3796387 2.765625l0 -5.53125l0.84375 0l0 0.84375q0.328125 -0.59375 0.59375 -0.78125q0.28125 -0.1875 0.609375 -0.1875q0.46875 0 0.953125 0.3125l-0.3125 0.859375q-0.34375 -0.203125 -0.6875 -0.203125q-0.3125 0 -0.5625 0.1875q-0.234375 0.1875 -0.34375 0.515625q-0.15625 0.5 -0.15625 1.09375l0 2.890625l-0.9375 0zm3.564209 0l0 -7.625l0.9375 0l0 4.34375l2.21875 -2.25l1.21875 0l-2.125 2.0625l2.328125 3.46875l-1.15625 0l-1.8125 -2.828125l-0.671875 0.640625l0 2.1875l-0.9375 0zm5.59375 -4.453125l0 -1.078125l1.0625 0l0 1.078125l-1.0625 0zm0 4.453125l0 -1.0625l1.0625 0l0 1.0625l-1.0625 0zm8.921326 0l-0.9375 0l0 -5.96875q-0.34375 0.328125 -0.890625 0.65625q-0.546875 0.3125 -0.984375 0.46875l0 -0.90625q0.796875 -0.359375 1.375 -0.890625q0.59375 -0.53125 0.828125 -1.015625l0.609375 0l0 7.65625zm5.1348267 0l-0.9375 0l0 -5.96875q-0.34375 0.328125 -0.890625 0.65625q-0.546875 0.3125 -0.984375 0.46875l0 -0.90625q0.796875 -0.359375 1.375 -0.890625q0.59375 -0.53125 0.828125 -1.015625l0.609375 0l0 7.65625zm2.9108887 0l0 -1.0625l1.0625 0l0 1.0625q0 0.59375 -0.21875 0.953125q-0.203125 0.359375 -0.65625 0.5625l-0.25 -0.40625q0.296875 -0.125 0.4375 -0.390625q0.140625 -0.25 0.15625 -0.71875l-0.53125 0zm9.28064 -0.6875q-0.53125 0.453125 -1.015625 0.640625q-0.46875 0.171875 -1.015625 0.171875q-0.921875 0 -1.40625 -0.4375q-0.484375 -0.453125 -0.484375 -1.140625q0 -0.40625 0.171875 -0.734375q0.1875 -0.34375 0.484375 -0.546875q0.3125 -0.203125 0.6875 -0.3125q0.265625 -0.0625 0.828125 -0.140625q1.125 -0.125 1.671875 -0.3125q0 -0.203125 0 -0.25q0 -0.578125 -0.265625 -0.8125q-0.359375 -0.3125 -1.0625 -0.3125q-0.65625 0 -0.984375 0.234375q-0.3125 0.234375 -0.453125 0.8125l-0.921875 -0.125q0.125 -0.578125 0.40625 -0.9375q0.296875 -0.375 0.828125 -0.5625q0.546875 -0.203125 1.25 -0.203125q0.71875 0 1.15625 0.171875q0.4375 0.171875 0.640625 0.421875q0.21875 0.25 0.296875 0.640625q0.046875 0.234375 0.046875 0.859375l0 1.25q0 1.296875 0.0625 1.65625q0.0625 0.34375 0.234375 0.65625l-0.96875 0q-0.15625 -0.296875 -0.1875 -0.6875zm-0.078125 -2.078125q-0.515625 0.203125 -1.53125 0.34375q-0.578125 0.078125 -0.828125 0.1875q-0.234375 0.109375 -0.359375 0.3125q-0.125 0.1875 -0.125 0.4375q0 0.375 0.28125 0.625q0.28125 0.25 0.828125 0.25q0.53125 0 0.953125 -0.234375q0.421875 -0.234375 0.625 -0.65625q0.15625 -0.3125 0.15625 -0.9375l0 -0.328125zm6.0046387 0.734375l0.921875 0.125q-0.15625 0.953125 -0.78125 1.5q-0.625 0.53125 -1.53125 0.53125q-1.125 0 -1.8125 -0.734375q-0.6875 -0.75 -0.6875 -2.125q0 -0.90625 0.296875 -1.578125q0.296875 -0.671875 0.890625 -1.0q0.609375 -0.34375 1.328125 -0.34375q0.890625 0 1.46875 0.46875q0.578125 0.453125 0.734375 1.28125l-0.90625 0.140625q-0.140625 -0.546875 -0.46875 -0.828125q-0.328125 -0.28125 -0.796875 -0.28125q-0.703125 0 -1.15625 0.515625q-0.4375 0.5 -0.4375 1.59375q0 1.109375 0.421875 1.625q0.4375 0.5 1.125 0.5q0.546875 0 0.90625 -0.34375q0.375 -0.34375 0.484375 -1.046875zm3.765625 1.1875l0.125 0.828125q-0.390625 0.09375 -0.703125 0.09375q-0.5 0 -0.78125 -0.15625q-0.28125 -0.171875 -0.40625 -0.4375q-0.109375 -0.265625 -0.109375 -1.109375l0 -3.171875l-0.6875 0l0 -0.734375l0.6875 0l0 -1.359375l0.9375 -0.5625l0 1.921875l0.9375 0l0 0.734375l-0.9375 0l0 3.234375q0 0.390625 0.046875 0.515625q0.046875 0.109375 0.15625 0.1875q0.109375 0.0625 0.328125 0.0625q0.15625 0 0.40625 -0.046875zm0.9137573 -5.703125l0 -1.078125l0.9375 0l0 1.078125l-0.9375 0zm0 6.546875l0 -5.53125l0.9375 0l0 5.53125l-0.9375 0zm2.0237427 -2.765625q0 -1.53125 0.84375 -2.265625q0.71875 -0.625 1.734375 -0.625q1.140625 0 1.859375 0.75q0.734375 0.75 0.734375 2.0625q0 1.0625 -0.328125 1.6875q-0.3125 0.609375 -0.921875 0.953125q-0.609375 0.328125 -1.34375 0.328125q-1.15625 0 -1.875 -0.734375q-0.703125 -0.75 -0.703125 -2.15625zm0.953125 0q0 1.0625 0.46875 1.59375q0.46875 0.53125 1.15625 0.53125q0.703125 0 1.15625 -0.53125q0.46875 -0.53125 0.46875 -1.625q0 -1.015625 -0.46875 -1.546875q-0.453125 -0.53125 -1.15625 -0.53125q-0.6875 0 -1.15625 0.53125q-0.46875 0.515625 -0.46875 1.578125zm5.3171387 2.765625l0 -5.53125l0.84375 0l0 0.796875q0.609375 -0.921875 1.75 -0.921875q0.5 0 0.921875 0.1875q0.421875 0.171875 0.625 0.46875q0.21875 0.296875 0.296875 0.6875q0.046875 0.265625 0.046875 0.921875l0 3.390625l-0.9375 0l0 -3.359375q0 -0.578125 -0.109375 -0.859375q-0.109375 -0.28125 -0.390625 -0.453125q-0.265625 -0.171875 -0.640625 -0.171875q-0.59375 0 -1.03125 0.390625q-0.4375 0.375 -0.4375 1.4375l0 3.015625l-0.9375 0zm5.5514526 -1.65625l0.921875 -0.140625q0.078125 0.5625 0.4375 0.859375q0.359375 0.296875 1.0 0.296875q0.640625 0 0.953125 -0.265625q0.3125 -0.265625 0.3125 -0.625q0 -0.3125 -0.28125 -0.5q-0.1875 -0.125 -0.953125 -0.3125q-1.03125 -0.265625 -1.4375 -0.453125q-0.390625 -0.1875 -0.59375 -0.515625q-0.203125 -0.34375 -0.203125 -0.75q0 -0.359375 0.171875 -0.671875q0.171875 -0.328125 0.453125 -0.53125q0.21875 -0.15625 0.59375 -0.265625q0.390625 -0.125 0.8125 -0.125q0.65625 0 1.140625 0.1875q0.5 0.1875 0.734375 0.515625q0.234375 0.3125 0.3125 0.859375l-0.90625 0.125q-0.0625 -0.4375 -0.375 -0.671875q-0.296875 -0.234375 -0.828125 -0.234375q-0.65625 0 -0.9375 0.21875q-0.265625 0.203125 -0.265625 0.484375q0 0.1875 0.109375 0.328125q0.125 0.15625 0.359375 0.25q0.140625 0.0625 0.828125 0.25q1.0 0.265625 1.390625 0.4375q0.390625 0.15625 0.609375 0.484375q0.234375 0.3125 0.234375 0.796875q0 0.46875 -0.28125 0.890625q-0.265625 0.40625 -0.78125 0.640625q-0.515625 0.21875 -1.171875 0.21875q-1.078125 0 -1.640625 -0.4375q-0.5625 -0.453125 -0.71875 -1.34375zm5.96875 -2.796875l0 -1.078125l1.0625 0l0 1.078125l-1.0625 0zm0 4.453125l0 -1.0625l1.0625 0l0 1.0625l-1.0625 0zm5.2807007 -1.65625l0.921875 -0.140625q0.078125 0.5625 0.4375 0.859375q0.359375 0.296875 1.0 0.296875q0.640625 0 0.953125 -0.265625q0.3125 -0.265625 0.3125 -0.625q0 -0.3125 -0.28125 -0.5q-0.1875 -0.125 -0.953125 -0.3125q-1.03125 -0.265625 -1.4375 -0.453125q-0.390625 -0.1875 -0.59375 -0.515625q-0.203125 -0.34375 -0.203125 -0.75q0 -0.359375 0.171875 -0.671875q0.171875 -0.328125 0.453125 -0.53125q0.21875 -0.15625 0.59375 -0.265625q0.390625 -0.125 0.8125 -0.125q0.65625 0 1.140625 0.1875q0.5 0.1875 0.734375 0.515625q0.234375 0.3125 0.3125 0.859375l-0.90625 0.125q-0.0625 -0.4375 -0.375 -0.671875q-0.296875 -0.234375 -0.828125 -0.234375q-0.65625 0 -0.9375 0.21875q-0.265625 0.203125 -0.265625 0.484375q0 0.1875 0.109375 0.328125q0.125 0.15625 0.359375 0.25q0.140625 0.0625 0.828125 0.25q1.0 0.265625 1.390625 0.4375q0.390625 0.15625 0.609375 0.484375q0.234375 0.3125 0.234375 0.796875q0 0.46875 -0.28125 0.890625q-0.265625 0.40625 -0.78125 0.640625q-0.515625 0.21875 -1.171875 0.21875q-1.078125 0 -1.640625 -0.4375q-0.5625 -0.453125 -0.71875 -1.34375zm5.703125 1.65625l0 -5.53125l0.84375 0l0 0.796875q0.609375 -0.921875 1.75 -0.921875q0.5 0 0.921875 0.1875q0.421875 0.171875 0.625 0.46875q0.21875 0.296875 0.296875 0.6875q0.046875 0.265625 0.046875 0.921875l0 3.390625l-0.9375 0l0 -3.359375q0 -0.578125 -0.109375 -0.859375q-0.109375 -0.28125 -0.390625 -0.453125q-0.265625 -0.171875 -0.640625 -0.171875q-0.59375 0 -1.03125 0.390625q-0.4375 0.375 -0.4375 1.4375l0 3.015625l-0.9375 0zm9.535889 -0.6875q-0.53125 0.453125 -1.015625 0.640625q-0.46875 0.171875 -1.015625 0.171875q-0.921875 0 -1.40625 -0.4375q-0.484375 -0.453125 -0.484375 -1.140625q0 -0.40625 0.171875 -0.734375q0.1875 -0.34375 0.484375 -0.546875q0.3125 -0.203125 0.6875 -0.3125q0.265625 -0.0625 0.828125 -0.140625q1.125 -0.125 1.671875 -0.3125q0 -0.203125 0 -0.25q0 -0.578125 -0.265625 -0.8125q-0.359375 -0.3125 -1.0625 -0.3125q-0.65625 0 -0.984375 0.234375q-0.3125 0.234375 -0.453125 0.8125l-0.921875 -0.125q0.125 -0.578125 0.40625 -0.9375q0.296875 -0.375 0.828125 -0.5625q0.546875 -0.203125 1.25 -0.203125q0.71875 0 1.15625 0.171875q0.4375 0.171875 0.640625 0.421875q0.21875 0.25 0.296875 0.640625q0.046875 0.234375 0.046875 0.859375l0 1.25q0 1.296875 0.0625 1.65625q0.0625 0.34375 0.234375 0.65625l-0.96875 0q-0.15625 -0.296875 -0.1875 -0.6875zm-0.078125 -2.078125q-0.515625 0.203125 -1.53125 0.34375q-0.578125 0.078125 -0.828125 0.1875q-0.234375 0.109375 -0.359375 0.3125q-0.125 0.1875 -0.125 0.4375q0 0.375 0.28125 0.625q0.28125 0.25 0.828125 0.25q0.53125 0 0.953125 -0.234375q0.421875 -0.234375 0.625 -0.65625q0.15625 -0.3125 0.15625 -0.9375l0 -0.328125zm4.4420776 1.921875l0.125 0.828125q-0.390625 0.09375 -0.703125 0.09375q-0.5 0 -0.78125 -0.15625q-0.28125 -0.171875 -0.40625 -0.4375q-0.109375 -0.265625 -0.109375 -1.109375l0 -3.171875l-0.6875 0l0 -0.734375l0.6875 0l0 -1.359375l0.9375 -0.5625l0 1.921875l0.9375 0l0 0.734375l-0.9375 0l0 3.234375q0 0.390625 0.046875 0.515625q0.046875 0.109375 0.15625 0.1875q0.109375 0.0625 0.328125 0.0625q0.15625 0 0.40625 -0.046875zm2.7106934 3.09375q-0.78125 -0.984375 -1.328125 -2.296875q-0.53125 -1.3125 -0.53125 -2.71875q0 -1.234375 0.40625 -2.375q0.46875 -1.3125 1.453125 -2.625l0.65625 0q-0.625 1.09375 -0.828125 1.546875q-0.3125 0.71875 -0.5 1.5q-0.21875 0.984375 -0.21875 1.96875q0 2.5 1.546875 5.0l-0.65625 0zm6.407959 -3.15625l0 0.90625l-5.03125 0q-0.015625 -0.34375 0.109375 -0.65625q0.1875 -0.515625 0.609375 -1.015625q0.421875 -0.5 1.234375 -1.140625q1.234375 -1.03125 1.671875 -1.625q0.4375 -0.59375 0.4375 -1.125q0 -0.5625 -0.40625 -0.9375q-0.390625 -0.390625 -1.03125 -0.390625q-0.671875 0 -1.078125 0.40625q-0.40625 0.40625 -0.40625 1.125l-0.96875 -0.09375q0.09375 -1.078125 0.734375 -1.640625q0.65625 -0.5625 1.734375 -0.5625q1.109375 0 1.75 0.609375q0.640625 0.609375 0.640625 1.5q0 0.46875 -0.1875 0.90625q-0.1875 0.4375 -0.625 0.9375q-0.4375 0.484375 -1.453125 1.328125q-0.828125 0.71875 -1.078125 0.96875q-0.234375 0.25 -0.390625 0.5l3.734375 0zm1.5358887 0.90625l0 -1.0625l1.0625 0l0 1.0625l-1.0625 0zm7.3512573 -0.90625l0 0.90625l-5.03125 0q-0.015625 -0.34375 0.109375 -0.65625q0.1875 -0.515625 0.609375 -1.015625q0.421875 -0.5 1.234375 -1.140625q1.234375 -1.03125 1.671875 -1.625q0.4375 -0.59375 0.4375 -1.125q0 -0.5625 -0.40625 -0.9375q-0.390625 -0.390625 -1.03125 -0.390625q-0.671875 0 -1.078125 0.40625q-0.40625 0.40625 -0.40625 1.125l-0.96875 -0.09375q0.09375 -1.078125 0.734375 -1.640625q0.65625 -0.5625 1.734375 -0.5625q1.109375 0 1.75 0.609375q0.640625 0.609375 0.640625 1.5q0 0.46875 -0.1875 0.90625q-0.1875 0.4375 -0.625 0.9375q-0.4375 0.484375 -1.453125 1.328125q-0.828125 0.71875 -1.078125 0.96875q-0.234375 0.25 -0.390625 0.5l3.734375 0zm1.5358887 0.90625l0 -1.0625l1.0625 0l0 1.0625l-1.0625 0zm7.3512573 -0.90625l0 0.90625l-5.03125 0q-0.015625 -0.34375 0.109375 -0.65625q0.1875 -0.515625 0.609375 -1.015625q0.421875 -0.5 1.234375 -1.140625q1.234375 -1.03125 1.671875 -1.625q0.4375 -0.59375 0.4375 -1.125q0 -0.5625 -0.40625 -0.9375q-0.390625 -0.390625 -1.03125 -0.390625q-0.671875 0 -1.078125 0.40625q-0.40625 0.40625 -0.40625 1.125l-0.96875 -0.09375q0.09375 -1.078125 0.734375 -1.640625q0.65625 -0.5625 1.734375 -0.5625q1.109375 0 1.75 0.609375q0.640625 0.609375 0.640625 1.5q0 0.46875 -0.1875 0.90625q-0.1875 0.4375 -0.625 0.9375q-0.4375 0.484375 -1.453125 1.328125q-0.828125 0.71875 -1.078125 0.96875q-0.234375 0.25 -0.390625 0.5l3.734375 0zm1.5358887 0.90625l0 -1.0625l1.0625 0l0 1.0625l-1.0625 0zm7.3512573 -0.90625l0 0.90625l-5.03125 0q-0.015625 -0.34375 0.109375 -0.65625q0.1875 -0.515625 0.609375 -1.015625q0.421875 -0.5 1.234375 -1.140625q1.234375 -1.03125 1.671875 -1.625q0.4375 -0.59375 0.4375 -1.125q0 -0.5625 -0.40625 -0.9375q-0.390625 -0.390625 -1.03125 -0.390625q-0.671875 0 -1.078125 0.40625q-0.40625 0.40625 -0.40625 1.125l-0.96875 -0.09375q0.09375 -1.078125 0.734375 -1.640625q0.65625 -0.5625 1.734375 -0.5625q1.109375 0 1.75 0.609375q0.640625 0.609375 0.640625 1.5q0 0.46875 -0.1875 0.90625q-0.1875 0.4375 -0.625 0.9375q-0.4375 0.484375 -1.453125 1.328125q-0.828125 0.71875 -1.078125 0.96875q-0.234375 0.25 -0.390625 0.5l3.734375 0zm1.5202637 0.90625l0 -1.0625l1.0625 0l0 1.0625q0 0.59375 -0.21875 0.953125q-0.203125 0.359375 -0.65625 0.5625l-0.25 -0.40625q0.296875 -0.125 0.4375 -0.390625q0.140625 -0.25 0.15625 -0.71875l-0.53125 0z" fill-rule="nonzero"/><path fill="#000000" d="m533.23724 116.76861l0 -0.765625l3.515625 -4.03125q-0.59375 0.03125 -1.046875 0.03125l-2.25 0l0 -0.765625l4.515625 0l0 0.625l-3.0 3.5l-0.578125 0.640625q0.640625 -0.046875 1.1875 -0.046875l2.546875 0l0 0.8125l-4.890625 0zm5.484375 -2.765625q0 -1.53125 0.84375 -2.265625q0.71875 -0.625 1.734375 -0.625q1.140625 0 1.859375 0.75q0.734375 0.75 0.734375 2.0625q0 1.0625 -0.328125 1.6875q-0.3125 0.609375 -0.921875 0.953125q-0.609375 0.328125 -1.34375 0.328125q-1.15625 0 -1.875 -0.734375q-0.703125 -0.75 -0.703125 -2.15625zm0.953125 0q0 1.0625 0.46875 1.59375q0.46875 0.53125 1.15625 0.53125q0.703125 0 1.15625 -0.53125q0.46875 -0.53125 0.46875 -1.625q0 -1.015625 -0.46875 -1.546875q-0.453125 -0.53125 -1.15625 -0.53125q-0.6875 0 -1.15625 0.53125q-0.46875 0.515625 -0.46875 1.578125zm5.3171387 2.765625l0 -5.53125l0.84375 0l0 0.796875q0.609375 -0.921875 1.75 -0.921875q0.5 0 0.921875 0.1875q0.421875 0.171875 0.625 0.46875q0.21875 0.296875 0.296875 0.6875q0.046875 0.265625 0.046875 0.921875l0 3.390625l-0.9375 0l0 -3.359375q0 -0.578125 -0.109375 -0.859375q-0.109375 -0.28125 -0.390625 -0.453125q-0.265625 -0.171875 -0.640625 -0.171875q-0.59375 0 -1.03125 0.390625q-0.4375 0.375 -0.4375 1.4375l0 3.015625l-0.9375 0zm9.707764 -1.78125l0.96875 0.125q-0.234375 0.84375 -0.859375 1.3125q-0.609375 0.46875 -1.578125 0.46875q-1.203125 0 -1.921875 -0.75q-0.703125 -0.75 -0.703125 -2.09375q0 -1.390625 0.71875 -2.15625q0.71875 -0.78125 1.859375 -0.78125q1.109375 0 1.8125 0.765625q0.703125 0.75 0.703125 2.125q0 0.078125 0 0.234375l-4.125 0q0.046875 0.921875 0.515625 1.40625q0.46875 0.484375 1.15625 0.484375q0.515625 0 0.875 -0.265625q0.359375 -0.28125 0.578125 -0.875zm-3.078125 -1.515625l3.09375 0q-0.0625 -0.6875 -0.359375 -1.046875q-0.453125 -0.53125 -1.15625 -0.53125q-0.640625 0 -1.09375 0.4375q-0.4375 0.421875 -0.484375 1.140625zm7.918396 -0.46875q0 -1.34375 0.28125 -2.171875q0.28125 -0.828125 0.828125 -1.265625q0.546875 -0.453125 1.375 -0.453125q0.625 0 1.078125 0.25q0.46875 0.234375 0.765625 0.703125q0.3125 0.46875 0.484375 1.140625q0.171875 0.671875 0.171875 1.796875q0 1.34375 -0.28125 2.171875q-0.28125 0.828125 -0.828125 1.28125q-0.546875 0.4375 -1.390625 0.4375q-1.09375 0 -1.71875 -0.78125q-0.765625 -0.953125 -0.765625 -3.109375zm0.96875 0q0 1.875 0.4375 2.5q0.4375 0.625 1.078125 0.625q0.65625 0 1.09375 -0.625q0.4375 -0.625 0.4375 -2.5q0 -1.875 -0.4375 -2.5q-0.4375 -0.625 -1.09375 -0.625q-0.640625 0 -1.03125 0.546875q-0.484375 0.703125 -0.484375 2.578125zm5.4733276 3.765625l0 -1.0625l1.0625 0l0 1.0625q0 0.59375 -0.21875 0.953125q-0.203125 0.359375 -0.65625 0.5625l-0.25 -0.40625q0.296875 -0.125 0.4375 -0.390625q0.140625 -0.25 0.15625 -0.71875l-0.53125 0zm11.233826 -2.671875l1.015625 0.25q-0.328125 1.25 -1.15625 1.90625q-0.8125 0.640625 -2.015625 0.640625q-1.234375 0 -2.0 -0.5q-0.765625 -0.5 -1.171875 -1.453125q-0.40625 -0.953125 -0.40625 -2.046875q0 -1.1875 0.453125 -2.078125q0.453125 -0.890625 1.296875 -1.34375q0.84375 -0.46875 1.84375 -0.46875q1.15625 0 1.9375 0.59375q0.78125 0.578125 1.078125 1.640625l-0.984375 0.234375q-0.265625 -0.84375 -0.78125 -1.21875q-0.5 -0.375 -1.265625 -0.375q-0.875 0 -1.46875 0.421875q-0.59375 0.421875 -0.828125 1.140625q-0.234375 0.703125 -0.234375 1.453125q0 0.96875 0.28125 1.703125q0.28125 0.71875 0.875 1.078125q0.59375 0.359375 1.296875 0.359375q0.84375 0 1.4375 -0.484375q0.59375 -0.5 0.796875 -1.453125zm4.1956177 2.671875l0 -6.734375l-2.515625 0l0 -0.890625l6.046875 0l0 0.890625l-2.53125 0l0 6.734375l-1.0 0zm7.3084106 0l0 -7.625l1.515625 0l1.796875 5.390625q0.25 0.765625 0.375 1.140625q0.125 -0.421875 0.40625 -1.234375l1.828125 -5.296875l1.34375 0l0 7.625l-0.96875 0l0 -6.390625l-2.21875 6.390625l-0.90625 0l-2.203125 -6.5l0 6.5l-0.96875 0zm12.392395 -0.6875q-0.53125 0.453125 -1.015625 0.640625q-0.46875 0.171875 -1.015625 0.171875q-0.921875 0 -1.40625 -0.4375q-0.484375 -0.453125 -0.484375 -1.140625q0 -0.40625 0.171875 -0.734375q0.1875 -0.34375 0.484375 -0.546875q0.3125 -0.203125 0.6875 -0.3125q0.265625 -0.0625 0.828125 -0.140625q1.125 -0.125 1.671875 -0.3125q0 -0.203125 0 -0.25q0 -0.578125 -0.265625 -0.8125q-0.359375 -0.3125 -1.0625 -0.3125q-0.65625 0 -0.984375 0.234375q-0.3125 0.234375 -0.453125 0.8125l-0.921875 -0.125q0.125 -0.578125 0.40625 -0.9375q0.296875 -0.375 0.828125 -0.5625q0.546875 -0.203125 1.25 -0.203125q0.71875 0 1.15625 0.171875q0.4375 0.171875 0.640625 0.421875q0.21875 0.25 0.296875 0.640625q0.046875 0.234375 0.046875 0.859375l0 1.25q0 1.296875 0.0625 1.65625q0.0625 0.34375 0.234375 0.65625l-0.96875 0q-0.15625 -0.296875 -0.1875 -0.6875zm-0.078125 -2.078125q-0.515625 0.203125 -1.53125 0.34375q-0.578125 0.078125 -0.828125 0.1875q-0.234375 0.109375 -0.359375 0.3125q-0.125 0.1875 -0.125 0.4375q0 0.375 0.28125 0.625q0.28125 0.25 0.828125 0.25q0.53125 0 0.953125 -0.234375q0.421875 -0.234375 0.625 -0.65625q0.15625 -0.3125 0.15625 -0.9375l0 -0.328125zm2.3796387 2.765625l0 -5.53125l0.84375 0l0 0.84375q0.328125 -0.59375 0.59375 -0.78125q0.28125 -0.1875 0.609375 -0.1875q0.46875 0 0.953125 0.3125l-0.3125 0.859375q-0.34375 -0.203125 -0.6875 -0.203125q-0.3125 0 -0.5625 0.1875q-0.234375 0.1875 -0.34375 0.515625q-0.15625 0.5 -0.15625 1.09375l0 2.890625l-0.9375 0zm3.564209 0l0 -7.625l0.9375 0l0 4.34375l2.21875 -2.25l1.21875 0l-2.125 2.0625l2.328125 3.46875l-1.15625 0l-1.8125 -2.828125l-0.671875 0.640625l0 2.1875l-0.9375 0zm8.023132 -2.0l0.984375 -0.078125q0.109375 0.71875 0.5 1.078125q0.40625 0.359375 0.96875 0.359375q0.671875 0 1.140625 -0.5q0.46875 -0.515625 0.46875 -1.359375q0 -0.796875 -0.453125 -1.265625q-0.4375 -0.46875 -1.171875 -0.46875q-0.453125 0 -0.8125 0.21875q-0.359375 0.203125 -0.578125 0.53125l-0.875 -0.125l0.734375 -3.921875l3.796875 0l0 0.90625l-3.046875 0l-0.40625 2.046875q0.6875 -0.484375 1.4375 -0.484375q1.0 0 1.6875 0.703125q0.6875 0.6875 0.6875 1.765625q0 1.046875 -0.609375 1.796875q-0.734375 0.921875 -2.0 0.921875q-1.03125 0 -1.703125 -0.578125q-0.65625 -0.578125 -0.75 -1.546875zm6.4421387 2.0l0 -1.0625l1.0625 0l0 1.0625q0 0.59375 -0.21875 0.953125q-0.203125 0.359375 -0.65625 0.5625l-0.25 -0.40625q0.296875 -0.125 0.4375 -0.390625q0.140625 -0.25 0.15625 -0.71875l-0.53125 0zm7.7182007 -0.84375l0.125 0.828125q-0.390625 0.09375 -0.703125 0.09375q-0.5 0 -0.78125 -0.15625q-0.28125 -0.171875 -0.40625 -0.4375q-0.109375 -0.265625 -0.109375 -1.109375l0 -3.171875l-0.6875 0l0 -0.734375l0.6875 0l0 -1.359375l0.9375 -0.5625l0 1.921875l0.9375 0l0 0.734375l-0.9375 0l0 3.234375q0 0.390625 0.046875 0.515625q0.046875 0.109375 0.15625 0.1875q0.109375 0.0625 0.328125 0.0625q0.15625 0 0.40625 -0.046875zm4.5231323 0.15625q-0.53125 0.453125 -1.015625 0.640625q-0.46875 0.171875 -1.015625 0.171875q-0.921875 0 -1.40625 -0.4375q-0.484375 -0.453125 -0.484375 -1.140625q0 -0.40625 0.171875 -0.734375q0.1875 -0.34375 0.484375 -0.546875q0.3125 -0.203125 0.6875 -0.3125q0.265625 -0.0625 0.828125 -0.140625q1.125 -0.125 1.671875 -0.3125q0 -0.203125 0 -0.25q0 -0.578125 -0.265625 -0.8125q-0.359375 -0.3125 -1.0625 -0.3125q-0.65625 0 -0.984375 0.234375q-0.3125 0.234375 -0.453125 0.8125l-0.921875 -0.125q0.125 -0.578125 0.40625 -0.9375q0.296875 -0.375 0.828125 -0.5625q0.546875 -0.203125 1.25 -0.203125q0.71875 0 1.15625 0.171875q0.4375 0.171875 0.640625 0.421875q0.21875 0.25 0.296875 0.640625q0.046875 0.234375 0.046875 0.859375l0 1.25q0 1.296875 0.0625 1.65625q0.0625 0.34375 0.234375 0.65625l-0.96875 0q-0.15625 -0.296875 -0.1875 -0.6875zm-0.078125 -2.078125q-0.515625 0.203125 -1.53125 0.34375q-0.578125 0.078125 -0.828125 0.1875q-0.234375 0.109375 -0.359375 0.3125q-0.125 0.1875 -0.125 0.4375q0 0.375 0.28125 0.625q0.28125 0.25 0.828125 0.25q0.53125 0 0.953125 -0.234375q0.421875 -0.234375 0.625 -0.65625q0.15625 -0.3125 0.15625 -0.9375l0 -0.328125zm3.2546387 2.765625l-0.859375 0l0 -7.625l0.9375 0l0 2.71875q0.59375 -0.75 1.5 -0.75q0.515625 0 0.96875 0.21875q0.453125 0.203125 0.75 0.578125q0.296875 0.359375 0.453125 0.890625q0.171875 0.53125 0.171875 1.125q0 1.421875 -0.703125 2.203125q-0.703125 0.765625 -1.6875 0.765625q-0.96875 0 -1.53125 -0.8125l0 0.6875zm0 -2.796875q0 0.984375 0.265625 1.421875q0.4375 0.734375 1.1875 0.734375q0.625 0 1.0625 -0.53125q0.453125 -0.546875 0.453125 -1.59375q0 -1.078125 -0.4375 -1.59375q-0.421875 -0.515625 -1.03125 -0.515625q-0.609375 0 -1.0625 0.53125q-0.4375 0.53125 -0.4375 1.546875zm5.0514526 2.796875l0 -7.625l0.9375 0l0 7.625l-0.9375 0zm6.1643677 -1.78125l0.96875 0.125q-0.234375 0.84375 -0.859375 1.3125q-0.609375 0.46875 -1.578125 0.46875q-1.203125 0 -1.921875 -0.75q-0.703125 -0.75 -0.703125 -2.09375q0 -1.390625 0.71875 -2.15625q0.71875 -0.78125 1.859375 -0.78125q1.109375 0 1.8125 0.765625q0.703125 0.75 0.703125 2.125q0 0.078125 0 0.234375l-4.125 0q0.046875 0.921875 0.515625 1.40625q0.46875 0.484375 1.15625 0.484375q0.515625 0 0.875 -0.265625q0.359375 -0.28125 0.578125 -0.875zm-3.078125 -1.515625l3.09375 0q-0.0625 -0.6875 -0.359375 -1.046875q-0.453125 -0.53125 -1.15625 -0.53125q-0.640625 0 -1.09375 0.4375q-0.4375 0.421875 -0.484375 1.140625zm10.145264 -1.1875l-5.03125 0l0 -0.875l5.03125 0l0 0.875zm0 2.3125l-5.03125 0l0 -0.875l5.03125 0l0 0.875zm1.0355835 -1.59375q0 -1.34375 0.28125 -2.171875q0.28125 -0.828125 0.828125 -1.265625q0.546875 -0.453125 1.375 -0.453125q0.625 0 1.078125 0.25q0.46875 0.234375 0.765625 0.703125q0.3125 0.46875 0.484375 1.140625q0.171875 0.671875 0.171875 1.796875q0 1.34375 -0.28125 2.171875q-0.28125 0.828125 -0.828125 1.28125q-0.546875 0.4375 -1.390625 0.4375q-1.09375 0 -1.71875 -0.78125q-0.765625 -0.953125 -0.765625 -3.109375zm0.96875 0q0 1.875 0.4375 2.5q0.4375 0.625 1.078125 0.625q0.65625 0 1.09375 -0.625q0.4375 -0.625 0.4375 -2.5q0 -1.875 -0.4375 -2.5q-0.4375 -0.625 -1.09375 -0.625q-0.640625 0 -1.03125 0.546875q-0.484375 0.703125 -0.484375 2.578125zm5.8327637 6.015625l-0.671875 0q1.5625 -2.5 1.5625 -5.0q0 -0.984375 -0.21875 -1.953125q-0.1875 -0.78125 -0.5 -1.5q-0.203125 -0.46875 -0.84375 -1.5625l0.671875 0q0.984375 1.3125 1.453125 2.625q0.390625 1.140625 0.390625 2.375q0 1.40625 -0.53125 2.71875q-0.53125 1.3125 -1.3125 2.296875z" fill-rule="nonzero"/></g></svg>